{"glyphs":{"0":{"ha":777,"x_min":62,"x_max":714,"o":"m 714 497 q 694 289 714 383 q 633 127 674 194 q 531 23 593 60 q 389 -14 470 -14 q 242 23 304 -14 q 140 127 180 60 q 82 289 101 194 q 62 498 62 384 q 82 707 62 613 q 140 867 101 801 q 242 970 180 934 q 390 1006 304 1006 q 532 970 471 1006 q 633 867 593 934 q 694 707 674 801 q 714 497 714 612 m 207 497 q 217 313 207 395 q 248 176 227 232 q 303 91 269 121 q 389 61 338 61 q 474 91 439 61 q 530 176 509 121 q 561 313 551 232 q 570 497 570 395 q 561 681 570 600 q 530 817 551 762 q 475 901 509 872 q 390 930 440 930 q 304 901 339 930 q 248 817 269 872 q 216 681 226 762 q 207 497 207 600 z "},"1":{"ha":777,"x_min":92,"x_max":663,"o":"m 663 58 l 663 0 l 134 0 l 134 58 l 227 58 q 271 62 250 58 q 307 76 292 65 q 331 106 322 86 q 340 158 340 125 l 340 888 q 290 829 314 855 q 245 783 267 802 q 202 754 223 764 q 161 743 182 743 q 111 764 131 743 q 92 818 92 785 q 134 831 113 823 q 180 852 155 839 q 232 882 203 864 q 294 925 260 900 l 392 997 l 481 997 l 481 158 q 490 106 481 125 q 514 76 498 86 q 550 62 530 65 q 595 58 571 58 l 663 58 z "},"2":{"ha":777,"x_min":71,"x_max":675,"o":"m 640 774 q 625 679 640 725 q 579 585 609 633 q 506 484 549 536 q 408 371 463 431 l 174 111 l 494 111 q 546 120 526 111 q 579 143 566 129 q 599 176 592 157 q 611 215 606 195 l 616 240 l 675 240 l 668 0 l 71 0 l 71 102 l 302 370 q 395 485 357 434 q 456 581 433 536 q 490 669 479 626 q 500 760 500 713 q 491 832 500 800 q 466 888 483 865 q 422 923 449 911 q 358 936 395 936 q 281 919 311 936 q 235 873 252 902 q 212 807 218 845 q 205 729 205 770 q 159 733 180 729 q 121 748 137 737 q 95 775 104 758 q 86 819 86 793 q 103 893 86 859 q 155 953 121 928 q 240 992 189 978 q 358 1006 291 1006 q 476 989 423 1006 q 565 943 528 972 q 621 869 602 912 q 640 774 640 827 z "},"3":{"ha":777,"x_min":81,"x_max":696,"o":"m 345 61 q 423 73 385 61 q 489 111 460 84 q 534 180 517 137 q 551 285 551 222 q 534 365 551 329 q 484 425 517 400 q 405 464 452 450 q 300 478 358 478 l 256 478 l 256 549 l 300 549 q 386 564 346 549 q 455 607 426 579 q 501 675 484 635 q 518 764 518 715 q 510 836 518 804 q 484 890 502 868 q 438 924 466 913 q 370 936 410 936 q 293 919 323 936 q 245 873 262 902 q 222 807 229 845 q 216 729 216 770 q 170 733 191 729 q 132 748 148 737 q 106 775 115 758 q 97 819 97 793 q 114 893 97 859 q 166 953 132 928 q 252 992 201 978 q 370 1006 302 1006 q 489 991 435 1006 q 581 948 543 976 q 640 879 619 920 q 661 785 661 838 q 645 696 661 738 q 598 622 628 655 q 528 565 568 589 q 439 529 487 541 q 494 520 465 526 q 551 501 523 513 q 606 471 580 489 q 652 426 632 452 q 684 365 672 399 q 696 283 696 330 q 681 184 696 229 q 640 107 666 140 q 579 51 614 74 q 505 14 544 28 q 425 -7 467 -1 q 343 -14 383 -14 q 225 -1 275 -14 q 144 33 176 12 q 96 82 111 54 q 81 140 81 110 q 104 206 81 182 q 168 229 128 229 q 180 162 168 193 q 214 109 192 131 q 270 74 237 86 q 345 61 302 61 z "},"4":{"ha":777,"x_min":24,"x_max":757,"o":"m 757 350 l 757 272 l 585 272 l 585 158 q 594 106 585 125 q 618 76 604 86 q 654 62 633 65 q 699 58 675 58 l 717 58 l 717 0 l 298 0 l 298 58 l 338 58 q 382 62 361 58 q 418 76 404 65 q 443 106 433 86 q 452 158 452 125 l 452 272 l 24 272 l 24 329 l 453 991 l 585 991 l 585 350 l 757 350 m 123 350 l 452 350 l 452 607 q 453 674 452 637 q 454 749 454 711 q 457 824 455 787 q 461 895 458 862 q 448 869 456 885 q 428 833 439 853 q 404 792 417 814 q 379 750 391 770 q 367 730 372 739 q 355 711 361 720 q 345 695 350 703 q 336 681 340 687 l 123 350 z "},"5":{"ha":777,"x_min":77,"x_max":675,"o":"m 332 68 q 411 80 374 68 q 474 119 447 92 q 515 192 500 146 q 530 302 530 237 q 515 398 530 357 q 473 466 500 439 q 406 506 445 493 q 319 519 368 519 q 257 517 283 519 q 212 510 231 514 q 176 500 191 505 q 149 489 161 494 l 115 498 l 160 990 l 624 990 l 631 781 l 572 781 l 567 822 q 561 848 565 837 q 549 865 557 859 q 527 876 541 872 q 492 879 513 879 l 222 879 l 196 574 q 257 589 217 581 q 358 596 297 596 q 483 578 425 596 q 584 523 541 559 q 651 431 627 486 q 675 302 675 375 q 652 174 675 232 q 587 74 629 115 q 481 9 544 33 q 339 -14 418 -14 q 212 0 262 -14 q 131 33 161 13 q 89 78 101 54 q 77 126 77 103 q 98 186 77 165 q 164 208 119 208 q 175 153 164 178 q 206 109 185 127 q 258 79 227 90 q 332 68 290 68 z "},"6":{"ha":777,"x_min":85,"x_max":705,"o":"m 447 939 q 289 836 343 939 q 228 530 235 732 q 266 558 245 545 q 311 581 286 571 q 364 597 335 591 q 427 603 393 603 q 542 583 490 603 q 630 527 593 564 q 686 437 666 490 q 705 318 705 385 q 685 184 705 245 q 627 79 665 123 q 533 11 589 36 q 407 -14 477 -14 q 279 16 338 -14 q 177 106 220 45 q 110 266 134 168 q 85 500 85 363 q 95 628 85 565 q 124 748 104 692 q 174 852 144 804 q 244 934 203 899 q 335 987 284 968 q 447 1006 386 1006 q 548 994 505 1006 q 620 961 591 981 q 662 914 648 941 q 676 860 676 888 q 649 798 676 820 q 570 777 622 777 q 563 840 570 810 q 542 892 557 869 q 504 926 527 913 q 447 939 481 939 m 399 532 q 347 525 372 532 q 300 507 321 517 q 259 481 277 496 q 227 452 241 466 q 241 274 228 348 q 278 153 254 199 q 336 84 302 106 q 411 62 370 62 q 525 121 486 62 q 564 304 564 179 q 521 477 564 422 q 399 532 478 532 z "},"7":{"ha":777,"x_min":82,"x_max":710,"o":"m 710 950 l 368 0 l 264 0 l 591 879 l 227 879 q 169 861 190 879 q 146 808 149 843 l 140 739 l 82 739 l 89 990 l 710 990 l 710 950 z "},"8":{"ha":777,"x_min":64,"x_max":713,"o":"m 64 249 q 80 337 64 299 q 124 404 96 375 q 192 457 153 433 q 275 503 231 481 q 203 551 237 525 q 146 608 170 577 q 109 677 122 640 q 96 757 96 714 q 113 850 96 805 q 165 929 130 895 q 259 985 201 964 q 396 1006 317 1006 q 512 988 461 1006 q 598 938 564 970 q 651 862 633 906 q 669 766 669 819 q 656 687 669 722 q 618 625 642 652 q 559 575 593 597 q 482 532 524 553 q 576 479 533 507 q 649 419 618 452 q 696 348 680 387 q 713 265 713 310 q 689 148 713 200 q 622 60 665 96 q 517 5 579 24 q 379 -14 454 -14 q 242 7 302 -14 q 144 63 183 28 q 84 146 104 98 q 64 249 64 194 m 546 770 q 537 832 546 802 q 511 887 529 863 q 461 925 492 911 q 387 940 431 940 q 318 927 349 940 q 268 893 288 915 q 237 840 248 871 q 227 774 227 810 q 239 707 227 737 q 274 652 251 677 q 332 607 297 628 q 414 564 368 585 q 478 604 452 583 q 519 650 504 625 q 540 704 534 674 q 546 770 546 733 m 386 50 q 468 64 431 50 q 532 102 505 78 q 572 161 557 127 q 586 235 586 195 q 573 300 586 269 q 531 359 560 330 q 455 413 502 387 q 342 469 409 440 q 238 378 277 435 q 199 243 199 321 q 211 164 199 200 q 246 104 223 129 q 304 64 269 79 q 386 50 340 50 z "},"9":{"ha":777,"x_min":71,"x_max":692,"o":"m 375 464 q 437 474 409 465 q 487 498 465 484 q 525 534 509 513 q 550 576 541 554 l 550 579 q 535 736 549 670 q 498 846 522 803 q 441 909 474 888 q 368 929 408 929 q 254 864 295 929 q 214 677 214 800 q 224 580 214 621 q 254 513 234 539 q 305 476 275 488 q 375 464 335 464 m 317 61 q 487 164 431 61 q 549 476 542 268 q 514 441 534 458 q 469 411 494 424 q 412 390 444 398 q 345 382 381 382 q 234 400 284 382 q 147 452 183 418 q 91 540 111 487 q 71 664 71 593 q 91 802 71 739 q 150 910 111 865 q 243 980 188 955 q 368 1006 299 1006 q 498 979 439 1006 q 600 895 557 951 q 667 749 643 838 q 692 539 692 661 q 683 397 692 467 q 654 266 673 327 q 605 153 635 205 q 533 64 574 101 q 437 5 492 26 q 315 -16 382 -16 q 217 -5 256 -16 q 156 22 178 5 q 123 61 133 39 q 114 104 114 83 q 127 148 114 130 q 155 171 140 165 q 179 129 165 149 q 213 94 193 109 q 258 70 233 79 q 317 61 284 61 z "},"\u0000":{"ha":407,"x_min":0,"x_max":0,"o":""},"\r":{"ha":407,"x_min":0,"x_max":0,"o":""}," ":{"ha":361,"x_min":0,"x_max":0,"o":""},"◌":{"ha":1223,"x_min":149,"x_max":1103,"o":"m 641 850 q 664 902 641 880 q 718 923 688 923 q 755 908 741 923 q 770 870 770 893 q 746 820 770 842 q 693 798 723 798 q 655 814 670 798 q 641 850 641 829 m 836 794 q 860 847 836 825 q 913 869 884 869 q 951 854 937 869 q 966 816 966 838 q 942 764 966 785 q 889 742 918 742 q 850 757 865 742 q 836 794 836 772 m 425 795 q 448 847 425 825 q 501 869 472 869 q 539 854 525 869 q 554 816 554 838 q 531 764 554 786 q 477 742 508 742 q 439 758 454 742 q 425 795 425 773 m 959 644 q 982 696 959 675 q 1036 718 1006 718 q 1074 703 1059 718 q 1088 665 1088 688 q 1065 613 1088 635 q 1010 591 1042 591 q 973 607 987 591 q 959 644 959 622 m 245 644 q 268 696 245 675 q 321 718 292 718 q 359 703 345 718 q 374 665 374 688 q 351 613 374 635 q 296 591 327 591 q 259 606 273 591 q 245 644 245 621 m 973 437 q 997 490 973 469 q 1050 512 1020 512 q 1088 497 1074 512 q 1103 458 1103 481 q 1079 407 1103 429 q 1025 385 1055 385 q 987 400 1002 385 q 973 437 973 414 m 149 437 q 173 490 149 469 q 227 512 196 512 q 264 497 250 512 q 279 458 279 481 q 255 407 279 429 q 201 385 231 385 q 163 400 178 385 q 149 437 149 414 m 879 232 q 902 284 879 262 q 956 306 926 306 q 994 290 979 306 q 1008 252 1008 275 q 985 200 1008 222 q 930 178 962 178 q 893 194 907 178 q 879 232 879 210 m 164 231 q 188 284 164 262 q 241 306 212 306 q 279 290 264 306 q 294 252 294 275 q 270 200 294 222 q 216 178 247 178 q 178 193 193 178 q 164 231 164 208 m 698 82 q 721 134 698 113 q 775 156 745 156 q 812 141 798 156 q 827 103 827 125 q 803 50 827 73 q 750 28 779 28 q 712 44 726 28 q 698 82 698 60 m 286 83 q 310 134 286 113 q 363 156 333 156 q 401 141 387 156 q 415 103 415 125 q 392 51 415 73 q 338 28 369 28 q 301 44 315 28 q 286 83 286 61 m 480 25 q 504 78 480 56 q 557 99 528 99 q 595 84 581 99 q 610 46 610 69 q 586 -6 610 16 q 532 -28 563 -28 q 495 -13 509 -28 q 480 25 480 3 z "},"‌":{"ha":0,"x_min":-138,"x_max":269,"o":"m 269 1394 l -68 -334 l -138 -334 l 199 1394 l 269 1394 z "},"﻿":{"ha":0,"x_min":-138,"x_max":466,"o":"m -68 -334 l -138 -334 l 199 1394 l 466 1394 l 454 1337 l 257 1337 l -68 -334 z "},".":{"ha":397,"x_min":111,"x_max":286,"o":"m 111 85 q 118 130 111 112 q 137 159 125 148 q 164 174 149 170 q 199 179 180 179 q 232 174 216 179 q 260 159 248 170 q 279 130 272 148 q 286 85 286 112 q 279 40 286 58 q 260 11 272 22 q 232 -5 248 0 q 199 -9 216 -9 q 164 -5 180 -9 q 137 11 149 0 q 118 40 125 22 q 111 85 111 58 z "},",":{"ha":347,"x_min":41,"x_max":269,"o":"m 269 58 q 257 -27 269 14 q 218 -104 245 -69 q 147 -167 191 -138 q 41 -214 104 -195 l 41 -155 q 142 -102 110 -134 q 174 -31 174 -71 q 166 -7 174 -17 q 147 9 159 2 q 136 16 142 12 q 123 22 130 19 q 98 39 110 29 q 79 62 87 48 q 74 78 76 69 q 72 97 72 86 q 98 158 72 137 q 163 179 124 179 q 203 171 184 179 q 237 149 222 163 q 261 111 252 134 q 269 58 269 87 z "},":":{"ha":399,"x_min":113,"x_max":288,"o":"m 113 657 q 119 702 113 684 q 138 731 126 720 q 166 747 150 742 q 200 751 182 751 q 234 747 218 751 q 262 731 250 742 q 280 702 273 720 q 288 657 288 684 q 280 612 288 631 q 262 583 273 594 q 234 567 250 572 q 200 562 218 562 q 166 567 182 562 q 138 583 150 572 q 119 612 126 594 q 113 657 113 631 m 113 85 q 119 130 113 112 q 138 159 126 148 q 166 174 150 170 q 200 179 182 179 q 234 174 218 179 q 262 159 250 170 q 280 130 273 148 q 288 85 288 112 q 280 40 288 58 q 262 11 273 22 q 234 -5 250 0 q 200 -9 218 -9 q 166 -5 182 -9 q 138 11 150 0 q 119 40 126 22 q 113 85 113 58 z "},";":{"ha":347,"x_min":41,"x_max":269,"o":"m 87 657 q 94 702 87 684 q 113 731 101 720 q 141 747 125 742 q 175 751 157 751 q 209 747 193 751 q 237 731 224 742 q 255 702 248 720 q 262 657 262 684 q 255 612 262 631 q 237 583 248 594 q 209 567 224 572 q 175 562 193 562 q 141 567 157 562 q 113 583 125 572 q 94 612 101 594 q 87 657 87 631 m 269 58 q 257 -27 269 14 q 218 -104 245 -69 q 147 -167 191 -138 q 41 -214 104 -195 l 41 -155 q 142 -102 110 -134 q 174 -31 174 -71 q 166 -7 174 -17 q 147 9 159 2 q 136 16 142 12 q 123 22 130 19 q 98 39 110 29 q 79 62 87 48 q 74 78 76 69 q 72 97 72 86 q 98 158 72 137 q 163 179 124 179 q 203 171 184 179 q 237 149 222 163 q 261 111 252 134 q 269 58 269 87 z "},"…":{"ha":1076,"x_min":52,"x_max":911,"o":"m 730 62 q 759 148 730 117 q 839 179 787 179 q 892 161 873 179 q 911 109 911 143 q 883 22 911 53 q 802 -9 855 -9 q 750 8 769 -9 q 730 62 730 25 m 391 62 q 419 148 391 117 q 500 179 448 179 q 553 161 534 179 q 572 109 572 143 q 544 22 572 53 q 463 -9 516 -9 q 411 8 430 -9 q 391 62 391 25 m 52 62 q 80 148 52 117 q 161 179 109 179 q 214 161 195 179 q 233 109 233 143 q 205 22 233 53 q 124 -9 177 -9 q 72 8 91 -9 q 52 62 52 25 z "},"!":{"ha":463,"x_min":143,"x_max":318,"o":"m 262 279 l 199 279 l 150 991 l 311 991 l 262 279 m 143 85 q 150 130 143 112 q 169 159 157 148 q 196 174 180 170 q 231 179 212 179 q 264 174 248 179 q 292 159 280 170 q 311 130 304 148 q 318 85 318 112 q 311 40 318 58 q 292 11 304 22 q 264 -5 280 0 q 231 -9 248 -9 q 196 -5 212 -9 q 169 11 180 0 q 150 40 157 22 q 143 85 143 58 z "},"?":{"ha":694,"x_min":60,"x_max":624,"o":"m 354 436 l 354 279 l 269 279 l 269 490 q 371 547 330 515 q 437 617 412 580 q 472 696 461 654 q 482 778 482 737 q 473 843 482 814 q 446 894 465 873 q 399 926 428 914 q 330 937 370 937 q 258 923 288 937 q 210 884 228 909 q 183 828 191 860 q 175 760 175 795 q 129 766 150 760 q 93 783 108 772 q 69 810 78 793 q 60 850 60 827 q 75 911 60 883 q 123 961 90 940 q 203 994 155 982 q 319 1006 252 1006 q 440 989 385 1006 q 537 940 496 972 q 601 860 578 907 q 624 754 624 813 q 606 650 624 697 q 553 565 588 604 q 469 494 519 526 q 354 436 418 463 m 222 85 q 229 130 222 112 q 248 159 236 148 q 276 174 260 170 q 310 179 292 179 q 343 174 328 179 q 372 159 359 170 q 390 130 383 148 q 397 85 397 112 q 390 40 397 58 q 372 11 383 22 q 343 -5 359 0 q 310 -9 328 -9 q 276 -5 292 -9 q 248 11 260 0 q 229 40 236 22 q 222 85 222 58 z "},"'":{"ha":306,"x_min":79,"x_max":227,"o":"m 184 665 l 121 665 l 79 991 l 227 991 l 184 665 z "},"\"":{"ha":567,"x_min":79,"x_max":488,"o":"m 446 665 l 382 665 l 340 991 l 488 991 l 446 665 m 184 665 l 121 665 l 79 991 l 227 991 l 184 665 z "},"‛":{"ha":347,"x_min":142,"x_max":427,"o":"m 142 695 q 162 783 142 732 q 229 883 182 834 q 312 946 263 918 q 427 993 361 975 l 415 935 q 295 876 332 909 q 258 804 258 842 q 263 785 258 793 q 277 771 269 777 q 288 764 282 768 q 299 757 294 760 q 320 741 310 750 q 335 718 330 731 q 336 708 336 713 q 337 696 337 702 q 305 626 337 651 q 229 600 273 600 q 190 608 208 600 q 160 631 172 616 q 147 659 151 642 q 142 695 142 676 z "},"’":{"ha":347,"x_min":85,"x_max":369,"o":"m 369 897 q 350 810 369 862 q 283 709 332 759 q 200 646 249 674 q 85 599 151 617 l 96 657 q 216 716 179 682 q 254 789 254 750 q 248 807 254 800 q 234 821 243 815 q 224 828 229 825 q 212 835 218 831 q 192 851 201 842 q 177 875 182 861 q 175 884 176 878 q 174 895 174 890 q 207 966 174 941 q 283 991 239 991 q 322 984 304 991 q 351 961 340 976 q 364 933 359 950 q 369 897 369 916 z "},"“":{"ha":625,"x_min":142,"x_max":704,"o":"m 420 696 q 439 783 420 732 q 507 883 459 834 q 590 946 541 918 q 704 993 639 975 l 692 935 q 573 876 611 909 q 536 804 536 842 q 542 785 536 793 q 555 771 547 777 q 566 764 560 768 q 577 757 572 760 q 598 741 589 750 q 612 718 608 731 q 614 708 613 713 q 614 696 614 702 q 583 626 614 651 q 507 600 551 600 q 468 608 486 600 q 438 631 450 616 q 425 660 429 642 q 420 696 420 677 m 142 695 q 162 783 142 732 q 229 883 182 834 q 312 946 263 918 q 427 993 361 975 l 415 935 q 295 876 332 909 q 258 804 258 842 q 263 785 258 793 q 277 771 269 777 q 288 764 282 768 q 299 757 294 760 q 320 741 310 750 q 335 718 330 731 q 336 708 336 713 q 337 696 337 702 q 305 626 337 651 q 229 600 273 600 q 190 608 208 600 q 160 631 172 616 q 147 659 151 642 q 142 695 142 676 z "},"”":{"ha":625,"x_min":85,"x_max":647,"o":"m 647 896 q 628 810 647 862 q 561 709 610 759 q 478 646 527 674 q 363 599 429 617 l 374 657 q 494 716 456 682 q 532 789 532 750 q 526 807 532 800 q 512 821 521 815 q 502 828 507 825 q 490 835 496 831 q 470 851 479 842 q 455 875 460 861 q 453 884 454 878 q 452 895 452 890 q 484 966 452 941 q 560 991 516 991 q 600 984 582 991 q 629 961 618 976 q 642 933 637 950 q 647 896 647 916 m 369 897 q 350 810 369 862 q 283 709 332 759 q 200 646 249 674 q 85 599 151 617 l 96 657 q 216 716 179 682 q 254 789 254 750 q 248 807 254 800 q 234 821 243 815 q 224 828 229 825 q 212 835 218 831 q 192 851 201 842 q 177 875 182 861 q 175 884 176 878 q 174 895 174 890 q 207 966 174 941 q 283 991 239 991 q 322 984 304 991 q 351 961 340 976 q 364 933 359 950 q 369 897 369 916 z "},"(":{"ha":481,"x_min":79,"x_max":436,"o":"m 224 440 q 230 277 224 357 q 258 124 237 196 q 323 -9 280 52 q 436 -114 366 -71 l 436 -178 q 273 -85 341 -140 q 162 44 205 -31 q 99 217 119 119 q 79 440 79 315 q 99 663 79 565 q 162 835 119 760 q 273 963 205 909 q 436 1055 341 1017 l 436 993 q 323 889 366 950 q 258 756 280 827 q 230 604 237 685 q 224 440 224 523 z "},")":{"ha":481,"x_min":45,"x_max":401,"o":"m 257 440 q 251 604 257 523 q 222 756 244 685 q 158 889 200 827 q 45 993 115 950 l 45 1055 q 208 963 140 1017 q 319 835 276 909 q 381 663 361 760 q 401 440 401 565 q 381 217 401 315 q 319 44 361 119 q 208 -85 276 -31 q 45 -178 140 -140 l 45 -114 q 158 -9 115 -71 q 222 124 200 52 q 251 277 244 196 q 257 440 257 357 z "},"[":{"ha":498,"x_min":139,"x_max":449,"o":"m 449 -119 l 449 -178 l 139 -178 l 139 1055 l 449 1055 l 449 997 l 389 997 q 345 994 366 997 q 309 980 324 990 q 284 949 293 969 q 275 897 275 930 l 275 -20 q 284 -72 275 -52 q 309 -102 293 -92 q 345 -116 324 -113 q 389 -119 366 -119 l 449 -119 z "},"]":{"ha":500,"x_min":52,"x_max":361,"o":"m 361 1055 l 361 -178 l 52 -178 l 52 -119 l 111 -119 q 156 -116 135 -119 q 192 -102 177 -113 q 216 -72 207 -92 q 225 -20 225 -52 l 225 897 q 216 949 225 930 q 192 980 207 969 q 156 994 177 990 q 111 997 135 997 l 52 997 l 52 1055 l 361 1055 z "},"{":{"ha":595,"x_min":69,"x_max":525,"o":"m 525 -118 l 525 -178 l 433 -178 q 347 -163 385 -178 q 284 -123 309 -149 q 246 -61 259 -98 q 233 22 233 -24 l 233 264 q 221 334 233 307 q 186 379 208 362 q 134 402 163 395 q 69 411 104 410 l 69 469 q 134 477 104 471 q 186 501 163 484 q 221 545 208 517 q 233 615 233 573 l 233 857 q 284 1004 233 952 q 433 1055 334 1055 l 525 1055 l 525 996 l 484 996 q 396 959 422 996 q 370 850 370 922 l 370 612 q 331 500 370 545 q 215 441 292 454 l 215 440 q 332 381 294 427 q 370 268 370 336 l 370 28 q 396 -80 370 -43 q 484 -118 422 -118 l 525 -118 z "},"}":{"ha":595,"x_min":69,"x_max":525,"o":"m 161 -178 l 69 -178 l 69 -118 l 111 -118 q 199 -80 172 -118 q 225 28 225 -43 l 225 268 q 262 381 225 336 q 379 440 300 427 l 379 441 q 264 500 302 454 q 225 612 225 545 l 225 850 q 199 959 225 922 q 111 996 172 996 l 69 996 l 69 1055 l 161 1055 q 310 1004 259 1055 q 361 857 361 952 l 361 615 q 374 545 361 573 q 409 501 387 517 q 460 477 431 484 q 525 469 490 471 l 525 411 q 460 402 490 410 q 409 379 431 395 q 374 334 387 362 q 361 264 361 307 l 361 22 q 348 -61 361 -24 q 310 -123 335 -98 q 248 -163 285 -149 q 161 -178 210 -178 z "},"<":{"ha":777,"x_min":90,"x_max":686,"o":"m 686 245 l 686 153 l 90 472 l 90 521 l 686 842 l 686 749 l 220 496 l 686 245 z "},">":{"ha":777,"x_min":90,"x_max":686,"o":"m 686 521 l 686 472 l 90 153 l 90 245 l 557 496 l 90 749 l 90 842 l 686 521 z "},"ł":{"ha":400,"x_min":0,"x_max":400,"o":"m 319 1055 l 400 1055 l 82 -168 l 0 -168 l 319 1055 z "},"\\":{"ha":400,"x_min":0,"x_max":400,"o":"m 400 -168 l 318 -168 l 0 1055 l 81 1055 l 400 -168 z "},"|":{"ha":777,"x_min":346,"x_max":429,"o":"m 346 1055 l 429 1055 l 429 -334 l 346 -334 l 346 1055 z "},"@":{"ha":1279,"x_min":90,"x_max":1206,"o":"m 1206 545 q 1181 363 1206 445 q 1118 225 1156 282 q 1030 138 1079 168 q 933 107 981 107 q 831 141 872 107 q 770 233 789 174 l 762 233 q 730 183 748 206 q 690 143 712 160 q 638 117 667 126 q 575 107 610 107 q 495 121 533 107 q 428 165 456 136 q 381 239 399 194 q 364 345 364 283 q 373 425 364 381 q 399 512 381 469 q 446 595 417 555 q 513 667 474 635 q 603 716 551 697 q 718 734 655 734 q 795 722 763 734 q 848 693 827 710 l 904 722 l 937 722 l 867 368 q 865 352 866 360 q 862 336 863 344 q 859 306 860 322 q 857 275 857 290 q 864 233 857 251 q 883 203 871 215 q 910 186 895 191 q 942 180 925 180 q 1004 205 972 180 q 1062 277 1036 230 q 1104 392 1088 323 q 1121 549 1121 461 q 1092 709 1121 640 q 1011 826 1063 779 q 887 897 960 873 q 728 921 814 921 q 595 902 661 921 q 471 846 529 883 q 362 756 412 810 q 277 635 313 703 q 220 484 241 567 q 200 306 200 401 q 233 109 200 191 q 323 -25 267 26 q 455 -101 380 -77 q 614 -125 530 -125 q 722 -115 671 -125 q 817 -89 772 -105 q 899 -52 861 -73 q 966 -9 937 -31 l 999 -60 q 922 -110 964 -85 q 829 -154 879 -135 q 722 -185 780 -173 q 600 -197 665 -197 q 395 -166 489 -197 q 234 -73 301 -136 q 129 83 167 -11 q 90 302 90 177 q 112 490 90 400 q 174 656 133 579 q 271 795 214 732 q 400 901 329 857 q 556 968 471 944 q 736 991 641 991 q 940 957 852 991 q 1088 863 1029 922 q 1176 721 1147 803 q 1206 545 1206 638 m 493 325 q 523 216 493 252 q 599 180 552 180 q 660 196 633 180 q 703 235 686 211 q 732 291 721 260 q 749 354 743 322 l 802 636 q 771 667 793 656 q 724 677 749 677 q 649 660 683 677 q 590 612 615 642 q 546 545 565 583 q 516 469 528 507 q 498 392 504 430 q 493 325 493 355 z "},"&":{"ha":1031,"x_min":50,"x_max":1018,"o":"m 551 807 q 545 859 551 835 q 523 900 538 883 q 483 927 508 917 q 422 937 457 937 q 328 901 361 937 q 294 806 294 865 q 300 756 294 779 q 317 711 305 733 q 347 663 329 688 q 392 610 366 639 q 463 647 433 627 q 513 690 493 667 q 542 742 532 713 q 551 807 551 770 m 393 64 q 469 72 434 64 q 533 96 504 81 q 587 131 562 111 q 631 176 611 152 l 323 505 q 266 466 292 488 q 223 417 241 445 q 195 353 205 389 q 186 273 186 318 q 201 183 186 222 q 243 118 216 144 q 309 77 271 91 q 393 64 347 64 m 1018 58 l 1018 0 l 796 0 l 681 122 q 626 69 656 94 q 559 26 595 44 q 478 -3 522 7 q 380 -14 433 -14 q 235 7 298 -14 q 132 67 173 28 q 71 159 92 105 q 50 278 50 213 q 66 381 50 337 q 111 458 82 425 q 181 516 140 491 q 272 562 222 541 q 225 622 245 593 q 193 680 205 651 q 173 738 180 708 q 165 802 165 768 q 180 885 165 848 q 227 949 195 922 q 309 991 259 977 q 428 1006 359 1006 q 542 990 494 1006 q 618 947 589 975 q 660 884 647 920 q 673 808 673 848 q 661 729 673 764 q 620 665 648 694 q 547 610 591 636 q 439 557 502 584 l 692 289 q 707 352 701 320 q 718 416 713 385 q 722 476 721 446 q 724 530 724 505 l 724 585 l 974 585 l 974 526 l 961 526 q 916 524 938 526 q 874 511 893 521 q 840 483 855 501 q 815 432 824 464 q 787 335 803 387 q 747 231 771 283 l 876 93 q 897 76 886 83 q 923 65 908 69 q 957 60 937 61 q 1006 58 977 58 l 1018 58 z "},"*":{"ha":694,"x_min":57,"x_max":629,"o":"m 57 721 l 290 790 l 57 860 l 106 970 l 319 835 l 283 1055 l 404 1055 l 366 836 l 581 966 l 629 859 l 395 790 l 629 722 l 581 615 l 366 745 l 404 525 l 283 525 l 318 745 l 106 612 l 57 721 z "},"÷":{"ha":777,"x_min":90,"x_max":686,"o":"m 318 760 q 323 796 318 781 q 338 820 329 811 q 361 832 348 829 q 389 836 374 836 q 416 832 404 836 q 439 820 429 829 q 454 796 449 811 q 460 760 460 781 q 454 724 460 739 q 439 701 449 709 q 416 688 429 692 q 389 684 404 684 q 361 688 374 684 q 338 701 348 692 q 323 724 329 709 q 318 760 318 739 m 90 538 l 686 538 l 686 456 l 90 456 l 90 538 m 318 233 q 323 270 318 255 q 338 294 329 285 q 361 306 348 302 q 389 310 374 310 q 416 306 404 310 q 439 294 429 302 q 454 270 449 285 q 460 233 460 255 q 454 197 460 212 q 439 174 449 182 q 416 161 429 165 q 389 157 404 157 q 338 174 358 157 q 318 233 318 191 z "},"×":{"ha":777,"x_min":98,"x_max":676,"o":"m 676 267 l 618 208 l 387 439 l 157 208 l 98 268 l 329 498 l 98 728 l 157 786 l 387 555 l 618 787 l 676 728 l 446 497 l 676 267 z "},"+":{"ha":777,"x_min":90,"x_max":686,"o":"m 686 538 l 686 456 l 429 456 l 429 199 l 346 199 l 346 456 l 90 456 l 90 538 l 346 538 l 346 794 l 429 794 l 429 538 l 686 538 z "},"−":{"ha":431,"x_min":25,"x_max":407,"o":"m 387 326 l 25 326 l 45 431 l 407 431 l 387 326 z "},"=":{"ha":777,"x_min":90,"x_max":686,"o":"m 90 591 l 90 673 l 686 673 l 686 591 l 90 591 m 90 318 l 90 400 l 686 400 l 686 318 l 90 318 z "},"%":{"ha":1244,"x_min":62,"x_max":1182,"o":"m 518 699 q 504 572 518 629 q 461 474 490 515 q 390 411 433 433 q 290 389 347 389 q 188 411 231 389 q 117 474 144 433 q 76 572 89 515 q 62 699 62 629 q 76 825 62 768 q 117 922 89 882 q 188 984 144 962 q 292 1006 231 1006 q 391 984 349 1006 q 462 922 433 962 q 504 825 490 882 q 518 699 518 768 m 822 991 l 913 991 l 418 0 l 326 0 l 822 991 m 187 699 q 193 592 187 640 q 210 512 198 545 q 242 463 222 479 q 290 446 262 446 q 338 463 319 446 q 370 512 358 479 q 387 592 382 545 q 392 699 392 640 q 387 804 392 758 q 370 882 382 850 q 339 931 358 914 q 292 947 320 947 q 243 931 263 947 q 211 882 223 914 q 193 804 198 850 q 187 699 187 758 m 1182 296 q 1168 169 1182 227 q 1125 71 1154 112 q 1054 8 1097 31 q 954 -14 1011 -14 q 851 8 895 -14 q 781 71 808 31 q 740 169 753 112 q 726 296 726 227 q 740 422 726 365 q 781 519 753 479 q 852 581 808 559 q 956 603 895 603 q 1055 581 1013 603 q 1126 519 1097 559 q 1168 422 1154 479 q 1182 296 1182 365 m 851 296 q 857 189 851 237 q 874 109 862 142 q 906 60 886 77 q 954 43 926 43 q 1002 60 983 43 q 1034 109 1022 77 q 1050 189 1045 142 q 1055 296 1055 237 q 1050 401 1055 355 q 1034 479 1045 447 q 1003 528 1022 511 q 956 545 984 545 q 907 528 927 545 q 875 479 887 511 q 857 401 862 447 q 851 296 851 355 z "},"-":{"ha":431,"x_min":35,"x_max":396,"o":"m 396 431 l 396 326 l 35 326 l 35 431 l 396 431 z "},"–":{"ha":694,"x_min":-15,"x_max":709,"o":"m 693 332 l -15 332 l 1 414 l 709 414 l 693 332 z "},"—":{"ha":1389,"x_min":-15,"x_max":1404,"o":"m 1388 332 l -15 332 l 1 414 l 1404 414 l 1388 332 z "},"#":{"ha":777,"x_min":56,"x_max":721,"o":"m 514 636 l 321 636 l 269 364 l 463 364 l 514 636 m 597 636 l 546 364 l 704 364 l 704 282 l 529 282 l 476 0 l 393 0 l 446 282 l 253 282 l 200 0 l 117 0 l 170 282 l 56 282 l 56 364 l 184 364 l 237 636 l 72 636 l 72 718 l 253 718 l 302 991 l 387 991 l 336 718 l 529 718 l 581 991 l 664 991 l 612 718 l 721 718 l 721 636 l 597 636 z "},"$":{"ha":777,"x_min":92,"x_max":679,"o":"m 240 739 q 247 688 240 710 q 269 649 254 666 q 303 618 283 632 q 351 593 324 605 l 351 884 q 303 864 324 878 q 269 833 282 851 q 247 790 254 814 q 240 739 240 766 m 551 271 q 545 320 551 298 q 522 361 538 342 q 482 397 507 380 q 421 429 457 413 l 421 121 q 517 172 484 132 q 551 271 551 212 m 351 1055 l 421 1055 l 421 950 q 527 936 484 949 q 599 903 571 924 q 639 854 627 882 q 652 794 652 827 q 622 727 652 749 q 542 704 592 704 q 537 766 542 734 q 519 822 532 797 q 482 865 506 847 q 421 886 458 882 l 421 562 q 532 508 484 535 q 612 450 580 481 q 662 379 645 418 q 679 292 679 340 q 611 130 679 188 q 421 58 544 71 l 421 -110 l 351 -110 l 351 56 q 281 59 317 56 q 213 69 246 62 q 149 87 180 76 q 92 113 117 98 l 92 326 l 150 326 q 164 251 150 288 q 206 186 179 215 q 270 139 233 157 q 351 117 307 120 l 351 460 q 241 518 286 489 q 168 578 196 547 q 128 646 140 609 q 115 728 115 683 q 132 812 115 774 q 179 879 149 850 q 253 924 210 907 q 351 947 297 941 l 351 1055 z "},"¢":{"ha":777,"x_min":110,"x_max":689,"o":"m 244 503 q 281 305 244 379 q 396 210 319 231 l 396 818 q 335 792 363 812 q 287 736 307 773 q 255 642 267 700 q 244 503 244 584 m 465 0 l 396 0 l 396 122 q 280 153 333 129 q 190 222 228 178 q 131 336 152 267 q 110 501 110 406 q 132 676 110 604 q 193 794 155 749 q 284 862 232 840 q 396 890 337 885 l 396 991 l 465 991 l 465 890 q 545 877 505 887 q 617 850 585 867 q 669 808 649 833 q 689 750 689 783 q 658 682 689 702 q 566 663 627 663 q 559 717 566 691 q 541 764 553 743 q 510 799 529 785 q 465 818 491 813 l 465 201 q 523 205 494 201 q 578 216 551 210 q 627 230 604 222 q 667 245 650 238 l 667 170 q 578 136 631 151 q 465 119 526 121 l 465 0 z "},"₹":{"ha":772,"x_min":81,"x_max":830,"o":"m 631 0 l 612 0 q 506 5 547 0 q 439 23 465 9 q 396 61 412 37 q 364 125 380 86 l 237 437 l 81 437 l 94 503 l 232 503 q 396 547 338 503 q 479 688 454 591 l 130 688 l 142 754 l 492 754 q 461 887 504 849 q 311 925 418 925 l 175 925 l 188 991 l 830 991 l 817 925 l 586 925 q 633 853 620 896 q 640 754 647 810 l 784 754 l 771 688 l 627 688 q 532 550 600 603 q 382 471 465 497 l 515 170 q 567 86 539 115 q 639 58 595 58 l 643 58 l 631 0 z "},"^":{"ha":777,"x_min":71,"x_max":704,"o":"m 164 370 l 71 370 l 363 991 l 411 991 l 704 370 l 611 370 l 386 864 l 164 370 z "},"_":{"ha":637,"x_min":-7,"x_max":644,"o":"m -7 -115 l 644 -115 l 644 -197 l -7 -197 l -7 -115 z "},"`":{"ha":802,"x_min":267,"x_max":536,"o":"m 536 860 l 536 842 l 484 842 q 423 889 456 861 q 360 947 391 917 q 304 1004 330 977 q 267 1050 279 1031 l 267 1064 l 415 1064 q 440 1014 426 1041 q 471 959 455 986 q 505 906 488 932 q 536 860 522 880 z "},"~":{"ha":779,"x_min":77,"x_max":701,"o":"m 526 374 q 484 382 506 374 q 441 404 463 391 q 401 432 420 416 q 366 461 381 447 q 335 489 350 475 q 306 512 320 502 q 276 528 291 522 q 245 534 261 534 q 185 495 205 534 q 158 374 165 455 l 77 374 q 89 460 81 416 q 117 538 98 504 q 168 595 136 573 q 252 616 201 616 q 298 608 275 616 q 342 585 321 599 q 384 555 364 572 q 419 525 403 539 q 448 499 434 511 q 477 477 463 486 q 505 461 490 467 q 533 456 519 456 q 590 498 572 456 q 618 616 608 540 l 701 616 q 687 530 696 574 q 659 452 677 486 q 607 395 640 417 q 526 374 575 374 z "},"ऀ":{"ha":0,"x_min":-19,"x_max":414,"o":"m 414 1110 q 405 1061 414 1075 q 374 1037 396 1048 q 325 1176 363 1136 q 234 1217 288 1217 q 122 1176 177 1217 q 30 1049 68 1135 q -7 1074 4 1061 q -19 1107 -19 1088 q 55 1238 -19 1168 q 227 1307 128 1307 q 367 1240 320 1307 q 414 1110 414 1173 m 138 1045 q 162 1099 138 1076 q 218 1122 187 1122 q 257 1105 241 1122 q 273 1065 273 1088 q 248 1012 273 1035 q 193 989 222 989 q 153 1006 168 989 q 138 1045 138 1022 z "},"ँ":{"ha":0,"x_min":5,"x_max":439,"o":"m 287 1251 q 262 1197 287 1220 q 206 1175 237 1175 q 167 1191 182 1175 q 152 1231 152 1208 q 177 1284 152 1261 q 232 1307 202 1307 q 272 1291 256 1307 q 287 1251 287 1274 m 5 1186 q 14 1235 5 1221 q 45 1259 23 1249 q 94 1120 56 1160 q 186 1080 132 1080 q 297 1120 243 1080 q 390 1247 352 1161 q 427 1222 416 1236 q 439 1189 439 1208 q 365 1059 439 1128 q 193 989 292 989 q 52 1057 100 989 q 5 1186 5 1124 z "},"ं":{"ha":0,"x_min":138,"x_max":271,"o":"m 138 1044 q 163 1097 138 1074 q 218 1119 188 1119 q 256 1103 241 1119 q 271 1065 271 1087 q 246 1012 271 1034 q 193 989 222 989 q 154 1005 169 989 q 138 1044 138 1021 z "},"ः":{"ha":389,"x_min":153,"x_max":393,"o":"m 241 604 q 270 664 241 639 q 332 690 298 690 q 376 671 359 690 q 393 627 393 653 q 365 567 393 593 q 302 542 336 542 q 258 560 275 542 q 241 604 241 578 m 153 150 q 181 210 153 184 q 243 235 209 235 q 287 217 270 235 q 304 173 304 199 q 276 113 304 138 q 214 87 248 87 q 170 106 187 87 q 153 150 153 124 z "},"ऄ":{"ha":1051,"x_min":137,"x_max":1248,"o":"m 1080 902 l 1227 902 l 1248 818 l 1243 812 l 1068 812 l 909 -8 l 901 -13 l 804 13 l 882 410 q 831 394 854 399 q 784 389 807 389 q 736 393 761 389 q 689 407 712 398 q 703 356 698 384 q 708 301 708 328 q 630 117 708 193 q 429 42 552 42 q 201 176 264 42 q 137 405 137 309 q 153 489 137 468 q 204 513 170 510 q 258 238 195 325 q 422 152 321 152 q 566 204 509 152 q 623 332 623 256 q 604 411 623 374 q 551 463 585 447 q 480 442 518 451 q 397 429 441 433 l 363 535 l 368 542 q 581 600 515 549 q 646 730 646 650 q 615 804 646 779 q 532 830 584 830 q 413 790 462 830 q 353 690 365 749 q 291 708 313 690 q 268 758 268 727 q 331 858 268 810 q 502 905 393 905 q 674 847 610 905 q 738 698 738 789 q 715 596 738 642 q 627 502 692 550 q 684 479 654 486 q 741 472 713 472 q 857 509 806 472 q 921 615 908 546 l 958 812 l 849 812 l 827 896 l 833 902 l 985 902 q 1003 940 997 923 q 1010 970 1010 958 q 961 1027 1010 1011 q 826 1057 913 1044 q 595 1110 715 1074 q 475 1250 475 1146 q 481 1290 475 1273 q 500 1326 488 1308 q 599 1220 534 1244 q 777 1175 665 1196 q 1001 1109 921 1148 q 1082 927 1082 1070 q 1081 915 1082 921 q 1080 902 1081 908 z "},"अ":{"ha":1051,"x_min":137,"x_max":1248,"o":"m 268 758 q 331 858 268 810 q 502 905 393 905 q 674 847 610 905 q 738 698 738 789 q 715 596 738 642 q 627 502 692 550 q 684 479 654 486 q 741 472 713 472 q 857 509 806 472 q 921 615 908 546 l 958 812 l 849 812 l 827 896 l 833 902 l 1227 902 l 1248 818 l 1243 812 l 1068 812 l 909 -8 l 901 -13 l 804 13 l 882 410 q 831 394 854 399 q 784 389 807 389 q 736 393 761 389 q 689 407 712 398 q 703 356 698 384 q 708 301 708 328 q 630 117 708 193 q 429 42 552 42 q 201 176 264 42 q 137 405 137 309 q 153 489 137 468 q 204 513 170 510 q 258 238 195 325 q 422 152 321 152 q 566 204 509 152 q 623 332 623 256 q 604 411 623 374 q 551 463 585 447 q 480 442 518 451 q 397 429 441 433 l 363 535 l 368 542 q 581 600 515 549 q 646 730 646 650 q 615 804 646 779 q 532 830 584 830 q 413 790 462 830 q 353 690 365 749 q 291 708 313 690 q 268 758 268 727 z "},"आ":{"ha":1379,"x_min":137,"x_max":1575,"o":"m 1575 818 l 1571 812 l 1396 812 l 1236 -8 l 1229 -13 l 1132 13 l 1287 812 l 1068 812 l 909 -8 l 901 -13 l 804 13 l 882 410 q 831 394 854 399 q 784 389 807 389 q 736 393 761 389 q 689 407 712 398 q 703 356 698 384 q 708 301 708 328 q 630 117 708 193 q 429 42 552 42 q 201 176 264 42 q 137 405 137 309 q 153 489 137 468 q 204 513 170 510 q 258 238 195 325 q 422 152 321 152 q 566 204 509 152 q 623 332 623 256 q 604 411 623 374 q 551 463 585 447 q 480 442 518 451 q 397 429 441 433 l 363 535 l 368 542 q 581 600 515 549 q 646 730 646 650 q 615 804 646 779 q 532 830 584 830 q 413 790 462 830 q 353 690 365 749 q 291 708 313 690 q 268 758 268 727 q 331 858 268 810 q 502 905 393 905 q 674 847 610 905 q 738 698 738 789 q 715 596 738 642 q 627 502 692 550 q 684 479 654 486 q 741 472 713 472 q 857 509 806 472 q 921 615 907 546 l 960 812 l 849 812 l 827 896 l 833 902 l 1554 902 l 1575 818 z "},"इ":{"ha":682,"x_min":136,"x_max":879,"o":"m 655 600 l 380 600 q 299 577 322 600 q 276 524 276 555 q 293 483 276 498 q 340 468 310 468 q 431 478 372 468 q 523 489 490 489 q 625 433 590 489 q 661 319 661 378 q 573 168 661 228 q 353 101 486 109 q 402 30 374 48 q 479 12 431 12 q 516 15 500 12 q 548 22 532 18 q 553 3 551 13 q 555 -16 555 -7 q 525 -75 555 -54 q 454 -97 495 -97 q 355 -51 401 -97 q 293 102 309 -5 q 185 141 222 108 q 149 216 149 174 q 179 282 149 262 q 239 303 210 303 q 294 278 274 303 q 326 211 314 254 q 517 248 443 210 q 592 336 592 285 q 583 364 592 352 q 554 376 574 376 q 472 368 535 376 q 379 361 409 361 q 243 433 296 361 q 191 572 191 505 q 229 660 191 624 q 343 696 267 696 l 569 696 q 573 697 572 696 q 576 701 575 699 l 597 812 l 158 812 l 136 896 l 142 902 l 858 902 l 879 818 l 874 812 l 702 812 l 662 606 l 655 600 z "},"ई":{"ha":682,"x_min":136,"x_max":888,"o":"m 655 600 l 380 600 q 299 577 322 600 q 276 524 276 555 q 293 483 276 498 q 340 468 310 468 q 431 478 372 468 q 523 489 490 489 q 625 433 590 489 q 661 319 661 378 q 573 168 661 228 q 353 101 486 109 q 402 30 374 48 q 479 12 431 12 q 516 15 500 12 q 548 22 532 18 q 553 3 551 13 q 555 -16 555 -7 q 525 -75 555 -54 q 454 -97 495 -97 q 355 -51 401 -97 q 293 102 309 -5 q 185 141 222 108 q 149 216 149 174 q 179 282 149 262 q 239 303 210 303 q 294 278 274 303 q 326 211 314 254 q 517 248 443 210 q 592 336 592 285 q 583 364 592 352 q 554 376 574 376 q 472 368 535 376 q 379 361 409 361 q 243 433 296 361 q 191 572 191 505 q 229 660 191 624 q 343 696 267 696 l 569 696 q 573 697 572 696 q 576 701 575 699 l 597 812 l 158 812 l 136 896 l 142 902 l 593 902 q 553 970 568 931 q 538 1049 538 1010 q 601 1194 538 1130 q 755 1257 663 1257 q 852 1225 817 1257 q 888 1152 888 1193 q 885 1129 888 1137 q 880 1118 882 1122 q 826 1153 856 1143 q 770 1163 797 1163 q 665 1121 705 1163 q 626 1020 626 1080 q 640 956 626 987 q 679 902 654 926 l 858 902 l 879 818 l 874 812 l 702 812 l 662 606 l 655 600 z "},"उ":{"ha":758,"x_min":136,"x_max":955,"o":"m 950 812 l 718 812 q 750 743 740 777 q 760 677 760 709 q 735 584 760 627 q 646 499 711 541 q 714 414 689 465 q 739 306 739 363 q 659 124 739 201 q 452 47 579 47 q 210 191 278 47 q 142 434 142 334 q 156 515 142 487 q 212 547 170 543 q 271 255 205 352 q 444 157 336 157 q 592 209 530 157 q 654 340 654 260 q 630 417 654 385 q 568 466 606 450 q 493 450 533 455 q 410 444 454 444 l 385 555 l 391 562 q 600 605 524 562 q 675 718 675 648 q 651 782 675 752 q 574 812 627 812 l 158 812 l 136 896 l 142 902 l 934 902 l 955 818 l 950 812 z "},"ऊ":{"ha":1029,"x_min":136,"x_max":1226,"o":"m 718 812 q 750 743 740 777 q 760 677 760 709 q 735 584 760 627 q 646 499 711 541 q 669 481 659 490 q 689 463 680 472 q 793 538 749 515 q 883 562 837 562 q 1010 500 961 562 q 1060 344 1060 438 q 1001 157 1060 229 q 881 85 941 85 q 830 102 852 85 q 800 144 808 119 q 928 241 876 176 q 981 385 981 306 q 962 451 981 426 q 908 477 943 477 q 828 449 871 477 q 734 368 785 422 q 739 339 737 356 q 740 308 740 322 q 660 125 740 202 q 452 47 579 47 q 210 191 278 47 q 142 434 142 334 q 156 515 142 487 q 212 547 170 543 q 271 255 205 352 q 444 157 336 157 q 592 209 530 157 q 654 340 654 260 q 630 417 654 385 q 568 466 606 450 q 493 450 533 455 q 410 444 454 444 l 385 555 l 391 562 q 600 605 524 562 q 675 718 675 648 q 651 782 675 752 q 574 812 627 812 l 158 812 l 136 896 l 142 902 l 1205 902 l 1226 818 l 1221 812 l 718 812 z "},"ऋ":{"ha":1160,"x_min":136,"x_max":1357,"o":"m 805 812 l 741 484 q 848 504 798 488 q 945 548 899 520 q 933 583 937 566 q 930 614 930 600 q 958 680 930 652 q 1030 709 986 709 q 1096 681 1072 709 q 1120 618 1120 653 q 1101 557 1120 587 q 1046 498 1081 527 q 1107 376 1086 432 q 1128 274 1128 320 q 1073 142 1128 191 q 958 92 1018 92 q 895 117 917 92 q 876 183 873 142 q 992 213 938 183 q 1046 302 1046 243 q 1035 360 1046 323 q 989 460 1023 397 q 865 408 935 429 q 722 385 795 387 l 646 -8 l 638 -13 l 541 13 l 607 354 q 422 232 505 291 q 254 107 338 174 l 186 187 l 188 195 q 378 332 280 266 q 593 465 477 398 q 467 566 514 535 q 382 596 419 596 q 305 569 345 596 q 227 492 265 541 q 189 530 202 509 q 176 572 176 551 q 224 651 176 611 q 354 691 273 691 q 461 658 407 691 q 639 517 516 625 l 696 812 l 158 812 l 136 896 l 142 902 l 1336 902 l 1357 818 l 1352 812 l 805 812 z "},"ऌ":{"ha":957,"x_min":136,"x_max":1154,"o":"m 886 812 l 846 608 q 937 537 902 591 q 972 411 972 484 q 940 288 972 333 q 849 184 908 243 q 732 74 785 119 q 680 -9 680 28 q 693 -35 680 -26 q 728 -43 707 -43 q 821 -18 766 -43 q 914 59 876 7 q 944 35 930 53 q 958 -7 958 16 q 902 -90 958 -52 q 776 -129 846 -129 q 650 -80 701 -129 q 600 22 600 -32 q 652 131 600 76 q 748 226 705 186 q 860 344 822 295 q 897 445 897 393 q 875 504 897 484 q 817 523 852 524 q 689 472 763 522 q 541 299 616 422 l 533 297 l 454 354 q 491 414 472 386 q 530 465 510 442 q 470 517 502 500 q 406 534 439 534 q 293 482 340 534 q 246 351 246 429 q 289 185 246 277 q 419 23 332 94 q 399 2 412 10 q 374 -5 387 -5 q 234 113 321 -5 q 146 373 146 231 q 212 554 146 481 q 382 627 278 627 q 482 601 435 627 q 576 513 529 576 q 662 578 618 553 q 745 611 706 602 l 785 812 l 158 812 l 136 896 l 142 902 l 1133 902 l 1154 818 l 1149 812 l 886 812 z "},"ऍ":{"ha":764,"x_min":136,"x_max":960,"o":"m 375 1204 q 384 1253 375 1240 q 415 1278 393 1267 q 465 1138 427 1179 q 556 1098 503 1098 q 668 1139 613 1098 q 760 1265 722 1179 q 798 1240 786 1254 q 809 1207 809 1227 q 735 1077 809 1146 q 563 1008 662 1008 q 422 1075 470 1008 q 375 1204 375 1142 m 774 812 l 709 479 q 670 399 699 429 q 604 369 642 369 q 555 384 577 369 q 516 421 533 398 q 579 465 555 435 q 610 530 604 494 l 665 812 l 351 812 l 281 455 q 324 358 268 388 q 488 273 380 329 q 681 147 632 200 q 730 47 730 94 q 689 -56 730 -16 q 604 -96 647 -96 q 553 -79 576 -96 q 521 -40 530 -62 q 608 19 584 -10 q 631 79 631 47 q 606 119 631 99 q 500 180 581 140 q 235 339 309 277 q 187 534 161 401 l 241 812 l 158 812 l 136 896 l 142 902 l 939 902 l 960 818 l 956 812 l 774 812 z "},"ऎ":{"ha":764,"x_min":136,"x_max":960,"o":"m 782 902 l 939 902 l 960 818 l 956 812 l 774 812 l 709 479 q 670 399 699 429 q 604 369 642 369 q 555 384 577 369 q 516 421 533 398 q 579 465 555 435 q 610 530 604 494 l 665 812 l 351 812 l 281 455 q 324 358 268 388 q 488 273 380 329 q 681 147 632 200 q 730 47 730 94 q 689 -56 730 -16 q 604 -96 647 -96 q 553 -79 576 -96 q 521 -40 530 -62 q 608 19 584 -10 q 631 79 631 47 q 606 119 631 99 q 500 180 581 140 q 235 339 309 277 q 187 534 161 401 l 241 812 l 158 812 l 136 896 l 142 902 l 687 902 q 705 940 699 923 q 711 971 711 958 q 663 1028 711 1013 q 528 1057 614 1043 q 304 1110 418 1074 q 191 1249 191 1147 q 197 1290 191 1273 q 216 1326 203 1308 q 309 1219 247 1244 q 479 1175 372 1194 q 703 1109 623 1147 q 783 927 783 1070 q 783 915 783 921 q 782 902 783 908 z "},"ए":{"ha":764,"x_min":136,"x_max":960,"o":"m 774 812 l 709 479 q 670 399 699 429 q 604 369 642 369 q 555 384 577 369 q 516 421 533 398 q 579 465 555 435 q 610 530 604 494 l 665 812 l 351 812 l 281 455 q 324 358 268 388 q 488 273 380 329 q 681 147 632 200 q 730 47 730 94 q 689 -56 730 -16 q 604 -96 647 -96 q 553 -79 576 -96 q 521 -40 530 -62 q 608 19 584 -10 q 631 79 631 47 q 606 119 631 99 q 500 180 581 140 q 235 339 309 277 q 187 534 161 401 l 241 812 l 158 812 l 136 896 l 142 902 l 939 902 l 960 818 l 956 812 l 774 812 z "},"ऐ":{"ha":764,"x_min":136,"x_max":960,"o":"m 604 369 q 555 384 577 369 q 516 421 533 398 q 579 465 555 435 q 610 530 604 494 l 665 812 l 351 812 l 281 455 q 324 358 268 388 q 488 273 380 329 q 681 147 632 200 q 730 47 730 94 q 689 -56 730 -16 q 604 -96 647 -96 q 553 -79 576 -96 q 521 -40 530 -62 q 608 19 584 -10 q 631 79 631 47 q 606 119 631 99 q 500 180 581 140 q 235 339 308 277 q 187 534 161 401 l 241 812 l 158 812 l 136 896 l 142 902 l 692 902 q 531 1138 589 1076 q 414 1201 473 1201 q 347 1183 376 1201 q 294 1131 317 1165 q 255 1158 270 1140 q 241 1201 241 1177 q 280 1272 241 1240 q 387 1303 320 1303 q 538 1232 456 1303 q 772 902 621 1161 l 939 902 l 960 818 l 956 812 l 774 812 l 709 479 q 670 399 699 429 q 604 369 642 369 z "},"ऑ":{"ha":1379,"x_min":137,"x_max":1575,"o":"m 1035 1204 q 1044 1253 1035 1240 q 1075 1278 1053 1267 q 1124 1138 1086 1179 q 1216 1098 1162 1098 q 1328 1139 1273 1098 q 1420 1265 1382 1179 q 1457 1240 1446 1254 q 1469 1207 1469 1227 q 1395 1077 1469 1146 q 1223 1008 1322 1008 q 1082 1075 1130 1008 q 1035 1204 1035 1142 m 1575 818 l 1571 812 l 1396 812 l 1236 -8 l 1229 -13 l 1132 13 l 1287 812 l 1068 812 l 909 -8 l 901 -13 l 804 13 l 882 410 q 831 394 854 399 q 784 389 807 389 q 736 393 761 389 q 689 407 712 398 q 703 356 698 384 q 708 301 708 328 q 630 117 708 193 q 429 42 552 42 q 201 176 264 42 q 137 405 137 309 q 153 489 137 468 q 204 513 170 510 q 258 238 195 325 q 422 152 321 152 q 566 204 509 152 q 623 332 623 256 q 604 411 623 374 q 551 463 585 447 q 480 442 518 451 q 397 429 441 433 l 363 535 l 368 542 q 581 600 515 549 q 646 730 646 650 q 615 804 646 779 q 532 830 584 830 q 413 790 462 830 q 353 690 365 749 q 291 708 313 690 q 268 758 268 727 q 331 858 268 810 q 502 905 393 905 q 674 847 610 905 q 738 698 738 789 q 715 596 738 642 q 627 502 692 550 q 684 479 654 486 q 741 472 713 472 q 857 509 806 472 q 921 615 907 546 l 960 812 l 849 812 l 827 896 l 833 902 l 1554 902 l 1575 818 z "},"ऒ":{"ha":1379,"x_min":137,"x_max":1575,"o":"m 1575 818 l 1571 812 l 1396 812 l 1236 -8 l 1229 -13 l 1132 13 l 1287 812 l 1068 812 l 909 -8 l 901 -13 l 804 13 l 882 410 q 831 394 854 399 q 784 389 807 389 q 736 393 761 389 q 689 407 712 398 q 703 356 698 384 q 708 301 708 328 q 630 117 708 193 q 429 42 552 42 q 201 176 264 42 q 137 405 137 309 q 153 489 137 468 q 204 513 170 510 q 258 238 195 325 q 422 152 321 152 q 566 204 509 152 q 623 332 623 256 q 604 411 623 374 q 551 463 585 447 q 480 442 518 451 q 397 429 441 433 l 363 535 l 368 542 q 581 600 515 549 q 646 730 646 650 q 615 804 646 779 q 532 830 584 830 q 413 790 462 830 q 353 690 365 749 q 291 708 313 690 q 268 758 268 727 q 331 858 268 810 q 502 905 393 905 q 674 847 610 905 q 738 698 738 789 q 715 596 738 642 q 627 502 692 550 q 684 479 654 486 q 741 472 713 472 q 857 509 806 472 q 921 615 907 546 l 960 812 l 849 812 l 827 896 l 833 902 l 1316 902 q 1334 940 1327 923 q 1340 970 1340 958 q 1292 1027 1340 1011 q 1156 1057 1243 1044 q 926 1110 1046 1074 q 806 1250 806 1146 q 812 1290 806 1273 q 831 1326 818 1308 q 929 1220 864 1244 q 1107 1175 995 1195 q 1337 1105 1255 1147 q 1411 902 1419 1062 l 1554 902 l 1575 818 z "},"ओ":{"ha":1379,"x_min":137,"x_max":1575,"o":"m 1575 818 l 1571 812 l 1396 812 l 1236 -8 l 1229 -13 l 1132 13 l 1287 812 l 1068 812 l 909 -8 l 901 -13 l 804 13 l 882 410 q 831 394 854 399 q 784 389 807 389 q 736 393 761 389 q 689 407 712 398 q 703 356 698 384 q 708 301 708 328 q 630 117 708 193 q 429 42 552 42 q 201 176 264 42 q 137 405 137 309 q 153 489 137 468 q 204 513 170 510 q 258 238 195 325 q 422 152 321 152 q 566 204 509 152 q 623 332 623 256 q 604 411 623 374 q 551 463 585 447 q 480 442 518 451 q 397 429 441 433 l 363 535 l 368 542 q 581 600 515 549 q 646 730 646 650 q 615 804 646 779 q 532 830 584 830 q 413 790 462 830 q 353 690 365 749 q 291 708 313 690 q 268 758 268 727 q 331 858 268 810 q 502 905 393 905 q 674 847 610 905 q 738 698 738 789 q 715 596 738 642 q 627 502 692 550 q 684 479 654 486 q 741 472 713 472 q 857 509 806 472 q 921 615 907 546 l 960 812 l 849 812 l 827 896 l 833 902 l 1311 902 q 1141 1146 1198 1090 q 1031 1201 1084 1201 q 964 1183 994 1201 q 911 1131 935 1165 q 873 1158 888 1139 q 859 1200 859 1177 q 899 1270 859 1236 q 1008 1303 939 1303 q 1156 1233 1073 1303 q 1390 902 1239 1162 l 1554 902 l 1575 818 z "},"औ":{"ha":1379,"x_min":137,"x_max":1575,"o":"m 1575 818 l 1571 812 l 1396 812 l 1236 -8 l 1229 -13 l 1132 13 l 1287 812 l 1068 812 l 909 -8 l 901 -13 l 804 13 l 882 410 q 831 394 854 399 q 784 389 807 389 q 736 393 761 389 q 689 407 712 398 q 703 356 698 384 q 708 301 708 328 q 630 117 708 193 q 429 42 552 42 q 201 176 264 42 q 137 405 137 309 q 153 489 137 468 q 204 513 170 510 q 258 238 195 325 q 422 152 321 152 q 566 204 509 152 q 623 332 623 256 q 604 411 623 374 q 551 463 585 447 q 480 442 518 451 q 397 429 441 433 l 363 535 l 368 542 q 581 600 515 549 q 646 730 646 650 q 615 804 646 779 q 532 830 584 830 q 413 790 462 830 q 353 690 365 749 q 291 708 313 690 q 268 758 268 727 q 331 858 268 810 q 502 905 393 905 q 674 847 610 905 q 738 698 738 789 q 715 596 738 642 q 627 502 692 550 q 684 479 654 486 q 741 472 713 472 q 857 509 806 472 q 921 615 907 546 l 960 812 l 849 812 l 827 896 l 833 902 l 1306 902 q 1147 1033 1225 989 q 1019 1078 1068 1078 q 960 1059 986 1078 q 915 1009 934 1040 q 867 1036 882 1018 q 852 1076 852 1053 q 890 1146 852 1117 q 977 1175 928 1175 q 1139 1121 1044 1175 q 1326 980 1233 1067 q 1272 1215 1300 1166 q 1209 1264 1244 1264 q 1164 1252 1185 1264 q 1126 1221 1143 1240 q 1090 1245 1105 1230 q 1076 1282 1076 1260 q 1107 1342 1076 1313 q 1192 1371 1137 1371 q 1314 1288 1254 1371 q 1403 902 1374 1205 l 1554 902 l 1575 818 z "},"क":{"ha":1046,"x_min":136,"x_max":1242,"o":"m 581 429 q 555 529 592 486 q 446 572 517 572 q 302 513 360 572 q 243 376 243 454 q 280 280 243 317 q 377 243 317 243 q 500 282 442 243 q 572 385 559 322 l 581 429 m 764 812 l 715 565 q 795 614 754 597 q 882 632 836 632 q 1013 576 960 632 q 1065 418 1065 519 q 1000 212 1065 288 q 878 136 935 136 q 830 152 851 136 q 798 195 808 169 q 938 311 886 237 q 989 454 989 386 q 967 522 989 497 q 908 546 945 546 q 767 487 846 546 q 670 336 688 429 l 604 -8 l 597 -13 l 500 13 l 534 189 q 466 158 498 167 q 405 149 434 149 q 231 226 311 149 q 151 413 151 303 q 230 594 151 519 q 416 669 309 669 q 516 648 464 669 q 608 574 569 627 l 655 812 l 158 812 l 136 896 l 142 902 l 1221 902 l 1242 818 l 1238 812 l 764 812 z "},"ख":{"ha":1062,"x_min":136,"x_max":1259,"o":"m 899 441 q 875 533 908 490 q 776 576 842 576 q 657 527 704 576 q 610 413 610 477 q 645 328 610 358 q 729 297 680 297 q 836 333 787 297 q 894 417 884 369 l 899 441 m 1079 812 l 920 -8 l 912 -13 l 815 13 l 860 245 q 803 221 828 229 q 752 214 777 214 q 593 284 664 214 q 523 451 523 355 q 589 606 523 543 q 751 669 655 669 q 847 646 804 669 q 924 576 891 623 l 970 812 l 444 812 q 461 722 455 770 q 468 632 468 674 q 410 436 468 513 q 241 328 353 359 q 406 150 300 219 q 665 58 512 81 q 625 12 650 26 q 563 -3 600 -3 q 281 146 427 -3 q 136 419 136 294 q 165 499 136 471 q 245 528 195 528 q 287 523 265 528 q 330 509 309 518 q 369 566 349 530 q 389 691 389 602 q 386 750 389 716 q 377 812 382 785 l 158 812 l 136 896 l 142 902 l 1238 902 l 1259 818 l 1254 812 l 1079 812 z "},"ग":{"ha":842,"x_min":136,"x_max":1038,"o":"m 859 812 l 700 -8 l 692 -13 l 595 13 l 751 812 l 456 812 l 367 355 q 336 273 356 300 q 286 246 315 246 q 188 307 235 246 q 140 406 140 367 q 155 437 140 423 q 202 452 170 452 l 280 452 l 351 812 l 158 812 l 136 896 l 142 902 l 1017 902 l 1038 818 l 1034 812 l 859 812 z "},"घ":{"ha":855,"x_min":136,"x_max":1052,"o":"m 873 812 l 713 -8 l 706 -13 l 609 13 l 644 196 q 559 161 602 173 q 475 150 517 150 q 310 212 373 150 q 248 356 248 274 q 264 433 248 395 q 309 504 281 471 q 229 583 258 539 q 200 682 200 626 q 215 760 200 732 q 251 812 231 787 l 158 812 l 136 896 l 142 902 l 1031 902 l 1052 818 l 1047 812 l 873 812 m 764 812 l 473 812 q 351 762 402 812 q 299 654 299 711 q 316 597 299 623 q 364 553 333 571 q 436 595 397 577 q 518 623 475 614 l 577 534 l 573 527 q 394 442 458 498 q 330 327 330 387 q 358 263 330 288 q 437 238 386 238 q 586 282 503 238 q 686 414 669 327 l 764 812 z "},"ङ":{"ha":808,"x_min":132,"x_max":1005,"o":"m 718 509 q 742 562 718 539 q 796 584 766 584 q 834 568 819 584 q 850 530 850 552 q 825 477 850 499 q 771 454 800 454 q 733 470 748 454 q 718 509 718 486 m 729 812 l 689 606 l 682 600 l 428 600 q 340 577 363 600 q 317 521 317 553 q 335 477 317 494 q 391 461 354 461 q 469 468 420 461 q 545 475 517 475 q 652 421 608 475 q 697 288 697 366 q 630 127 697 187 q 453 67 564 67 q 212 178 293 67 q 132 354 132 288 q 142 393 132 376 q 172 418 153 409 q 280 234 209 294 q 437 173 352 173 q 571 211 511 173 q 631 305 631 248 q 615 348 631 330 q 570 366 600 366 q 500 360 550 366 q 424 354 450 354 q 292 418 349 354 q 235 559 235 481 q 274 658 235 621 q 391 696 312 696 l 596 696 q 601 697 599 696 q 603 701 602 699 l 625 812 l 158 812 l 136 896 l 142 902 l 984 902 l 1005 818 l 1000 812 l 729 812 z "},"च":{"ha":896,"x_min":136,"x_max":1093,"o":"m 913 812 l 754 -8 l 747 -13 l 650 13 l 690 224 q 597 183 644 197 q 506 170 551 170 q 332 237 395 170 q 268 390 268 304 q 288 478 268 437 q 350 563 307 518 l 189 563 l 168 647 l 173 653 l 633 653 l 654 569 l 649 563 l 612 563 q 426 499 500 563 q 351 362 351 435 q 384 284 351 315 q 478 253 417 253 q 642 312 566 253 q 734 448 719 371 l 805 812 l 158 812 l 136 896 l 142 902 l 1072 902 l 1093 818 l 1088 812 l 913 812 z "},"छ":{"ha":930,"x_min":136,"x_max":1126,"o":"m 878 812 l 858 707 q 926 639 903 688 q 949 529 949 591 q 802 198 949 354 q 477 41 655 41 q 301 109 366 41 q 235 259 235 177 q 251 331 235 296 q 292 396 267 366 q 214 468 239 425 q 189 555 189 511 q 250 686 189 634 q 391 738 312 738 q 464 715 438 738 q 502 642 490 692 q 331 609 381 642 q 281 528 281 576 q 298 481 281 503 q 349 444 315 460 q 416 476 380 463 q 494 494 453 490 l 551 406 l 547 399 q 375 332 433 382 q 317 227 317 283 q 352 158 317 183 q 441 134 387 134 q 609 184 524 134 q 757 311 694 235 q 663 432 692 370 q 634 547 634 494 q 670 655 634 610 q 764 715 706 701 l 783 812 l 158 812 l 136 896 l 142 902 l 1105 902 l 1126 818 l 1122 812 l 878 812 m 802 366 q 854 470 835 418 q 874 564 874 522 q 862 615 874 597 q 825 632 849 632 q 753 597 785 632 q 722 517 722 562 q 742 445 722 484 q 802 366 761 406 z "},"ज":{"ha":964,"x_min":136,"x_max":1160,"o":"m 981 812 l 822 -8 l 814 -13 l 718 13 l 819 536 l 593 536 q 630 460 618 501 q 642 381 642 418 q 572 217 642 280 q 406 154 501 154 q 216 283 267 154 q 165 506 165 413 q 177 594 165 567 q 237 626 189 621 q 272 351 227 437 q 398 264 317 264 q 507 304 458 264 q 557 418 557 345 q 528 500 557 465 q 439 536 498 536 l 418 620 l 422 626 l 836 626 l 873 812 l 158 812 l 136 896 l 142 902 l 1139 902 l 1160 818 l 1156 812 l 981 812 z "},"झ":{"ha":1017,"x_min":136,"x_max":1214,"o":"m 642 606 l 635 600 l 380 600 q 299 577 322 600 q 276 523 276 554 q 293 483 276 498 q 342 468 310 468 q 430 476 370 468 q 521 484 490 484 q 565 477 545 484 q 602 463 585 471 q 650 443 626 448 q 697 438 675 438 q 817 475 766 438 q 881 581 868 513 l 926 812 l 682 812 l 642 606 m 1034 812 l 875 -8 l 867 -13 l 770 13 l 841 378 q 792 360 814 366 q 747 355 770 355 q 699 359 723 355 q 654 370 675 363 q 660 342 658 357 q 661 317 661 328 q 574 168 661 225 q 353 101 488 110 q 402 30 374 48 q 479 12 431 12 q 516 15 500 12 q 548 22 532 18 q 553 3 551 13 q 555 -16 555 -7 q 525 -75 555 -54 q 454 -97 495 -97 q 355 -51 401 -97 q 293 102 309 -5 q 185 141 222 108 q 149 216 149 174 q 179 282 149 262 q 239 303 210 303 q 294 278 274 303 q 326 211 314 254 q 516 247 439 210 q 593 338 593 283 q 584 367 593 355 q 554 379 574 379 q 473 373 536 379 q 381 366 410 366 q 244 436 298 366 q 191 573 191 506 q 229 660 191 624 q 343 696 267 696 l 549 696 q 553 697 551 696 q 555 701 555 699 l 577 812 l 158 812 l 136 896 l 142 902 l 1193 902 l 1214 818 l 1209 812 l 1034 812 z "},"ञ":{"ha":1038,"x_min":136,"x_max":1235,"o":"m 1056 812 l 897 -8 l 889 -13 l 792 13 l 854 333 q 834 329 842 330 q 818 328 825 328 q 761 342 787 328 q 713 383 734 357 q 615 202 689 273 q 431 132 541 132 q 220 253 281 132 q 159 463 159 373 q 178 542 159 522 q 227 563 197 563 q 272 320 220 399 q 416 242 323 242 q 572 302 505 242 q 639 454 639 361 q 612 538 639 506 q 538 571 585 571 q 473 555 509 571 q 402 490 437 538 q 360 517 374 498 q 347 557 347 536 q 392 636 347 598 q 503 674 436 674 q 638 620 580 674 q 712 484 696 565 q 751 448 731 458 q 793 438 771 438 q 853 458 823 438 q 893 534 882 478 l 947 812 l 158 812 l 136 896 l 142 902 l 1214 902 l 1235 818 l 1230 812 l 1056 812 z "},"ट":{"ha":718,"x_min":136,"x_max":914,"o":"m 729 812 l 680 561 l 673 555 l 524 555 q 313 486 393 555 q 233 317 233 416 q 277 200 233 250 q 410 151 321 151 q 560 191 490 151 q 669 295 630 231 q 707 269 694 286 q 720 231 720 252 q 634 114 720 166 q 442 62 549 62 q 223 154 306 62 q 141 357 141 246 q 240 567 141 478 q 505 655 338 655 l 589 655 q 593 656 591 655 q 595 661 594 658 l 625 812 l 158 812 l 136 896 l 142 902 l 893 902 l 914 818 l 909 812 l 729 812 z "},"ठ":{"ha":772,"x_min":132,"x_max":968,"o":"m 695 812 l 654 600 q 742 497 708 561 q 776 363 776 434 q 672 145 776 235 q 433 55 568 55 q 215 148 299 55 q 132 355 132 240 q 228 564 132 473 q 475 655 323 655 l 555 655 q 559 656 557 655 q 561 661 560 658 l 591 812 l 158 812 l 136 896 l 142 902 l 947 902 l 968 818 l 964 812 l 695 812 m 688 401 q 646 509 688 462 q 505 555 604 555 q 297 484 375 555 q 220 317 220 412 q 267 195 220 246 q 399 144 314 144 q 597 217 506 144 q 688 401 688 291 z "},"ड":{"ha":713,"x_min":132,"x_max":910,"o":"m 743 812 l 703 606 l 696 600 l 428 600 q 340 577 363 600 q 317 521 317 553 q 335 477 317 494 q 391 461 354 461 q 469 468 420 461 q 545 475 517 475 q 652 421 608 475 q 697 288 697 366 q 630 127 697 187 q 453 67 564 67 q 212 178 293 67 q 132 354 132 288 q 142 393 132 376 q 172 418 153 409 q 280 234 209 294 q 437 173 352 173 q 571 211 511 173 q 631 305 631 248 q 615 348 631 330 q 570 366 600 366 q 500 360 550 366 q 424 354 450 354 q 292 418 349 354 q 235 559 235 481 q 274 658 235 621 q 391 696 312 696 l 610 696 q 614 697 612 696 q 616 701 616 699 l 638 812 l 158 812 l 136 896 l 142 902 l 889 902 l 910 818 l 905 812 l 743 812 z "},"ढ":{"ha":718,"x_min":136,"x_max":914,"o":"m 729 812 l 682 568 l 675 562 l 525 562 q 313 490 394 562 q 233 315 233 418 q 280 186 233 243 q 422 130 327 130 q 455 132 437 130 q 490 138 473 134 q 444 216 458 178 q 430 286 430 253 q 477 401 430 359 q 587 444 524 444 q 692 397 652 444 q 732 284 732 349 q 645 112 732 182 q 444 41 558 41 q 229 138 313 41 q 145 355 145 235 q 244 571 145 480 q 510 662 343 662 l 590 662 q 594 663 593 662 q 596 667 595 665 l 625 812 l 158 812 l 136 896 l 142 902 l 893 902 l 914 818 l 909 812 l 729 812 m 669 302 q 654 344 669 328 q 614 360 639 360 q 547 330 578 360 q 517 254 517 300 q 524 209 517 234 q 546 159 531 184 q 634 223 600 184 q 669 302 669 262 z "},"ण":{"ha":964,"x_min":136,"x_max":1160,"o":"m 981 812 l 822 -8 l 814 -13 l 718 13 l 873 812 l 707 812 l 632 428 q 551 292 616 345 q 404 238 486 238 q 234 319 302 238 q 187 512 165 400 l 245 812 l 158 812 l 136 896 l 142 902 l 1139 902 l 1160 818 l 1156 812 l 981 812 m 354 812 l 284 454 q 299 354 271 388 q 376 321 327 321 q 476 361 430 321 q 536 475 522 401 l 602 812 l 354 812 z "},"त":{"ha":808,"x_min":134,"x_max":1004,"o":"m 825 812 l 666 -8 l 659 -13 l 562 13 l 661 528 l 399 528 q 267 469 305 528 q 229 334 229 410 q 264 169 229 258 q 364 14 299 81 q 346 -6 357 1 q 323 -12 334 -12 q 205 106 275 -12 q 134 366 134 225 q 195 553 134 481 q 370 626 256 626 l 680 626 l 717 812 l 158 812 l 136 896 l 142 902 l 983 902 l 1004 818 l 1000 812 l 825 812 z "},"थ":{"ha":909,"x_min":191,"x_max":1106,"o":"m 206 781 q 263 897 206 853 q 391 941 321 941 q 538 873 476 941 q 600 709 600 806 q 526 528 600 607 q 303 401 452 450 q 399 300 341 329 q 511 272 458 272 q 663 324 593 272 q 750 461 733 376 l 819 812 l 687 812 l 665 896 l 671 902 l 1085 902 l 1106 818 l 1101 812 l 927 812 l 768 -8 l 760 -13 l 663 13 l 702 214 q 623 176 663 189 q 539 163 584 163 q 344 237 436 163 q 191 475 252 310 l 195 481 q 437 593 360 525 q 513 750 513 661 q 487 827 513 800 q 417 854 460 854 q 337 828 372 854 q 302 755 302 801 q 324 695 302 724 q 396 645 346 666 q 378 631 390 637 q 345 625 366 625 q 249 671 292 625 q 206 781 206 718 z "},"द":{"ha":718,"x_min":136,"x_max":914,"o":"m 673 555 l 524 555 q 313 486 393 555 q 233 317 233 416 q 276 200 233 251 q 406 149 319 149 q 467 155 437 149 q 524 174 498 162 q 511 203 515 189 q 507 232 507 218 q 538 306 507 274 q 617 338 570 338 q 680 311 658 338 q 701 248 701 283 q 681 182 701 213 q 632 129 661 152 q 680 44 667 80 q 693 -19 693 7 q 662 -104 693 -71 q 591 -137 631 -137 q 545 -118 563 -137 q 519 -66 526 -100 q 588 -34 562 -56 q 615 15 615 -13 q 607 50 615 30 q 579 95 598 70 q 511 71 548 80 q 433 62 473 62 q 225 154 304 62 q 146 357 146 245 q 235 561 146 467 q 509 655 324 655 l 589 655 q 593 656 591 655 q 595 661 594 658 l 625 812 l 158 812 l 136 896 l 142 902 l 893 902 l 914 818 l 909 812 l 729 812 l 680 561 l 673 555 z "},"ध":{"ha":892,"x_min":216,"x_max":1088,"o":"m 909 812 l 750 -8 l 743 -13 l 646 13 l 681 195 q 597 161 638 172 q 513 150 556 150 q 337 215 404 150 q 271 363 271 280 q 294 452 271 408 q 352 532 316 497 q 250 640 283 581 q 216 753 216 699 q 273 884 216 827 q 413 941 329 941 q 519 900 480 941 q 559 807 559 859 q 541 749 559 760 q 510 737 522 737 q 488 821 515 798 q 431 844 461 844 q 351 809 386 844 q 315 723 315 773 q 338 648 315 686 q 412 576 361 609 q 480 606 444 594 q 555 623 516 618 l 613 535 l 609 528 q 421 456 488 510 q 355 336 355 403 q 386 266 355 294 q 474 238 417 238 q 625 281 543 238 q 724 414 707 324 l 801 812 l 669 812 l 648 896 l 653 902 l 1067 902 l 1088 818 l 1084 812 l 909 812 z "},"न":{"ha":760,"x_min":136,"x_max":957,"o":"m 778 812 l 618 -8 l 611 -13 l 514 13 l 605 480 l 335 480 l 317 382 q 298 341 312 353 q 269 328 283 328 q 185 389 233 328 q 136 505 136 450 q 176 564 136 550 q 273 578 216 578 l 624 578 l 669 812 l 158 812 l 136 896 l 142 902 l 936 902 l 957 818 l 952 812 l 778 812 z "},"ऩ":{"ha":760,"x_min":136,"x_max":957,"o":"m 778 812 l 618 -8 l 611 -13 l 514 13 l 605 480 l 335 480 l 317 382 q 298 341 312 353 q 269 328 283 328 q 185 389 233 328 q 136 505 136 450 q 176 564 136 550 q 273 578 216 578 l 624 578 l 669 812 l 158 812 l 136 896 l 142 902 l 936 902 l 957 818 l 952 812 l 778 812 m 216 42 q 241 94 216 72 q 295 117 265 117 q 333 101 318 117 q 349 62 349 85 q 324 9 349 32 q 270 -13 299 -13 q 232 3 247 -13 q 216 42 216 19 z "},"प":{"ha":754,"x_min":136,"x_max":951,"o":"m 771 812 l 612 -8 l 604 -13 l 507 13 l 560 286 q 477 250 517 261 q 400 238 437 238 q 232 320 298 238 q 187 512 165 401 l 245 812 l 158 812 l 136 896 l 142 902 l 930 902 l 951 818 l 946 812 l 771 812 m 354 812 l 284 454 q 296 355 271 389 q 376 321 321 321 q 518 375 448 321 q 604 509 589 430 l 663 812 l 354 812 z "},"फ":{"ha":1004,"x_min":136,"x_max":1200,"o":"m 354 812 l 283 448 q 292 358 271 389 q 359 328 312 328 q 484 374 421 328 q 559 488 546 421 l 622 812 l 354 812 m 846 639 q 975 587 922 639 q 1027 435 1027 534 q 963 232 1027 307 q 841 156 899 156 q 793 173 814 156 q 761 215 772 189 q 899 327 848 256 q 951 467 951 399 q 930 530 951 507 q 872 553 909 553 q 733 496 809 553 q 641 351 658 440 l 571 -8 l 564 -13 l 467 13 l 519 283 q 447 254 481 263 q 382 245 412 245 q 225 322 286 245 q 186 505 165 399 l 245 812 l 158 812 l 136 896 l 142 902 l 1179 902 l 1200 818 l 1196 812 l 730 812 l 684 576 q 763 623 723 608 q 846 639 804 639 z "},"ब":{"ha":787,"x_min":136,"x_max":983,"o":"m 804 812 l 645 -8 l 637 -13 l 541 13 l 577 201 q 484 160 528 172 q 404 149 439 149 q 219 226 301 149 q 137 413 137 304 q 227 604 137 526 q 437 683 316 683 q 553 658 497 683 q 650 580 610 633 l 696 812 l 158 812 l 136 896 l 142 902 l 962 902 l 983 818 l 979 812 l 804 812 m 619 419 l 624 442 q 591 544 637 503 q 467 585 545 585 q 419 581 444 585 q 375 568 395 576 l 543 300 q 592 354 572 323 q 619 419 612 385 m 230 376 q 268 277 230 317 q 372 237 305 237 q 423 243 396 237 q 473 259 450 248 l 302 525 q 250 457 269 494 q 230 376 230 419 z "},"भ":{"ha":938,"x_min":201,"x_max":1135,"o":"m 340 633 q 244 680 287 633 q 201 789 201 726 q 248 896 201 851 q 363 941 294 941 q 508 859 454 941 q 538 660 562 778 l 498 450 l 777 450 l 847 812 l 656 812 l 634 896 l 640 902 l 1114 902 l 1135 818 l 1130 812 l 956 812 l 796 -8 l 789 -13 l 692 13 l 758 351 l 479 351 l 460 253 q 440 212 454 224 q 412 199 426 199 q 327 260 376 199 q 279 376 279 321 q 313 433 279 418 q 391 449 348 448 l 444 725 q 443 825 458 795 q 391 854 429 854 q 324 829 351 854 q 297 763 297 804 q 319 703 297 732 q 391 653 340 674 q 373 640 385 646 q 340 633 361 633 z "},"म":{"ha":811,"x_min":117,"x_max":1008,"o":"m 829 812 l 669 -8 l 662 -13 l 565 13 l 629 345 l 317 345 l 298 246 q 278 205 292 218 q 250 193 264 193 q 165 254 214 193 q 117 368 117 315 q 140 419 117 397 q 229 442 163 441 l 300 812 l 158 812 l 136 896 l 142 902 l 987 902 l 1008 818 l 1003 812 l 829 812 m 648 443 l 720 812 l 408 812 l 336 443 l 648 443 z "},"य":{"ha":846,"x_min":136,"x_max":1043,"o":"m 705 -8 l 697 -13 l 600 13 l 642 227 q 563 189 602 201 q 481 177 524 177 q 293 254 378 177 q 153 502 208 332 l 158 509 q 352 600 307 548 q 398 730 398 651 q 395 774 398 751 q 388 812 393 797 l 158 812 l 136 896 l 142 902 l 1022 902 l 1043 818 l 1038 812 l 864 812 l 705 -8 m 456 812 q 474 742 467 780 q 481 671 481 704 q 426 521 481 580 q 264 426 370 462 q 348 317 295 349 q 455 286 400 286 q 602 336 532 286 q 688 468 673 386 l 755 812 l 456 812 z "},"र":{"ha":587,"x_min":136,"x_max":784,"o":"m 779 812 l 538 812 q 553 728 547 773 q 559 645 559 683 q 494 452 559 543 q 237 328 429 362 q 348 163 282 229 q 506 45 413 98 q 476 11 497 24 q 433 -1 454 -1 q 242 157 349 -1 q 136 421 136 315 q 166 497 136 466 q 247 528 196 528 q 303 519 272 528 q 365 490 334 510 q 455 574 431 522 q 479 706 479 625 q 477 758 479 727 q 471 812 475 789 l 158 812 l 136 896 l 142 902 l 763 902 l 784 818 l 779 812 z "},"ऱ":{"ha":587,"x_min":60,"x_max":784,"o":"m 779 812 l 538 812 q 553 728 547 773 q 559 645 559 683 q 494 452 559 543 q 237 328 429 362 q 348 163 282 229 q 506 45 413 98 q 476 11 497 24 q 433 -1 454 -1 q 242 157 349 -1 q 136 421 136 315 q 166 497 136 466 q 247 528 196 528 q 303 519 272 528 q 365 490 334 510 q 455 574 431 522 q 479 706 479 625 q 477 758 479 727 q 471 812 475 789 l 158 812 l 136 896 l 142 902 l 763 902 l 784 818 l 779 812 m 60 42 q 85 94 60 72 q 139 117 109 117 q 177 101 162 117 q 193 62 193 85 q 168 9 193 32 q 114 -13 143 -13 q 76 3 91 -13 q 60 42 60 19 z "},"ल":{"ha":957,"x_min":136,"x_max":1154,"o":"m 975 812 l 815 -8 l 808 -13 l 711 13 l 812 538 q 652 455 715 513 q 544 299 589 397 l 536 296 l 452 361 q 485 420 467 392 q 526 473 504 448 q 469 525 498 508 q 406 541 439 541 q 299 490 344 541 q 255 361 255 439 q 300 185 255 282 q 431 16 345 89 q 412 -4 425 3 q 387 -12 399 -12 q 244 116 332 -12 q 156 392 156 244 q 219 572 156 502 q 382 642 283 642 q 480 615 433 642 q 573 522 527 589 q 692 596 626 568 q 830 629 758 623 l 866 812 l 158 812 l 136 896 l 142 902 l 1133 902 l 1154 818 l 1149 812 l 975 812 z "},"ळ":{"ha":970,"x_min":111,"x_max":1167,"o":"m 886 812 l 845 602 q 961 512 915 581 q 1006 361 1006 444 q 930 176 1006 252 q 755 100 853 100 q 640 136 694 100 q 538 245 587 172 q 443 144 490 182 q 331 106 395 106 q 175 181 240 106 q 111 356 111 256 q 189 541 111 465 q 371 617 267 617 q 487 586 431 617 q 595 491 542 555 q 670 569 635 541 q 745 606 704 597 l 785 812 l 158 812 l 136 896 l 142 902 l 1146 902 l 1167 818 l 1162 812 l 886 812 m 918 404 q 890 488 918 455 q 811 522 863 522 q 721 481 766 522 q 581 304 675 441 q 647 222 611 248 q 728 195 684 195 q 862 258 806 195 q 918 404 918 321 m 552 435 q 481 499 519 477 q 397 522 442 522 q 256 459 314 522 q 199 315 199 397 q 227 229 199 262 q 304 195 254 195 q 410 249 363 195 q 552 435 456 302 z "},"ऴ":{"ha":970,"x_min":111,"x_max":1167,"o":"m 886 812 l 845 602 q 961 512 915 581 q 1006 361 1006 444 q 930 176 1006 252 q 755 100 853 100 q 640 136 694 100 q 538 245 587 172 q 443 144 490 182 q 331 106 395 106 q 175 181 240 106 q 111 356 111 256 q 189 541 111 465 q 371 617 267 617 q 487 586 431 617 q 595 491 542 555 q 670 569 635 541 q 745 606 704 597 l 785 812 l 158 812 l 136 896 l 142 902 l 1146 902 l 1167 818 l 1162 812 l 886 812 m 918 404 q 890 488 918 455 q 811 522 863 522 q 721 481 766 522 q 581 304 675 441 q 647 222 611 248 q 728 195 684 195 q 862 258 806 195 q 918 404 918 321 m 552 435 q 481 499 519 477 q 397 522 442 522 q 256 459 314 522 q 199 315 199 397 q 227 229 199 262 q 304 195 254 195 q 410 249 363 195 q 552 435 456 302 m 447 -28 q 471 24 447 2 q 526 47 496 47 q 564 31 549 47 q 579 -7 579 15 q 554 -60 579 -38 q 500 -83 530 -83 q 462 -67 477 -83 q 447 -28 447 -51 z "},"व":{"ha":787,"x_min":136,"x_max":983,"o":"m 804 812 l 645 -8 l 637 -13 l 541 13 l 577 201 q 484 160 528 172 q 404 149 439 149 q 219 226 301 149 q 137 413 137 304 q 227 604 137 526 q 437 683 316 683 q 553 658 497 683 q 650 580 610 633 l 696 812 l 158 812 l 136 896 l 142 902 l 962 902 l 983 818 l 979 812 l 804 812 m 624 442 q 591 544 637 503 q 467 585 545 585 q 298 523 367 585 q 230 376 230 461 q 268 277 230 317 q 372 237 305 237 q 527 289 451 237 q 619 419 604 341 l 624 442 z "},"श":{"ha":1011,"x_min":127,"x_max":1208,"o":"m 613 709 q 588 790 613 763 q 521 817 563 817 q 429 778 460 817 q 398 686 398 738 q 432 594 398 638 q 538 510 465 551 q 594 612 574 562 q 613 709 613 662 m 699 662 q 617 436 699 564 q 359 241 536 308 q 426 123 382 155 q 525 92 470 92 q 578 98 554 92 q 628 116 603 105 q 632 95 631 106 q 634 76 634 84 q 603 10 634 37 q 519 -17 572 -17 q 398 33 460 -17 q 294 228 335 83 q 171 264 215 229 q 127 345 127 300 q 156 412 127 386 q 226 437 186 437 q 290 416 260 437 q 338 351 320 395 q 424 398 383 370 q 496 459 464 427 q 348 570 395 509 q 300 701 300 631 q 308 757 300 729 q 334 812 316 785 l 158 812 l 136 896 l 142 902 l 1187 902 l 1208 818 l 1203 812 l 1029 812 l 869 -8 l 862 -13 l 765 13 l 920 812 l 656 812 q 688 741 677 779 q 699 662 699 702 z "},"ष":{"ha":754,"x_min":136,"x_max":951,"o":"m 771 812 l 612 -8 l 604 -13 l 507 13 l 560 286 q 477 250 517 261 q 400 238 437 238 q 232 320 298 238 q 187 512 165 401 l 245 812 l 158 812 l 136 896 l 142 902 l 930 902 l 951 818 l 946 812 l 771 812 m 357 812 l 574 435 q 592 470 585 452 q 604 509 600 488 l 663 812 l 357 812 m 284 454 q 296 355 271 389 q 376 321 321 321 q 451 336 412 321 q 521 378 489 351 l 332 700 l 284 454 z "},"स":{"ha":922,"x_min":136,"x_max":1119,"o":"m 500 812 q 517 725 511 770 q 524 640 524 679 q 503 519 524 558 q 454 448 482 481 q 523 430 488 436 q 585 425 557 425 q 714 464 659 425 q 782 563 770 503 l 831 812 l 500 812 m 939 812 l 780 -8 l 772 -13 l 675 13 l 744 368 q 682 347 711 353 q 625 341 652 341 q 515 358 572 341 q 408 401 458 375 q 335 358 376 376 q 237 328 294 340 q 347 164 281 231 q 506 45 413 98 q 476 11 497 24 q 433 -1 454 -1 q 242 157 349 -1 q 136 421 136 315 q 166 497 136 466 q 247 528 196 528 q 297 521 269 528 q 352 497 325 513 q 424 579 404 530 q 444 695 444 628 q 441 753 444 720 q 432 812 438 786 l 158 812 l 136 896 l 142 902 l 1098 902 l 1119 818 l 1114 812 l 939 812 z "},"ह":{"ha":682,"x_min":136,"x_max":879,"o":"m 702 812 l 661 599 l 654 593 l 372 593 q 287 564 313 593 q 260 502 260 534 q 268 465 260 484 q 290 432 276 447 q 369 464 327 453 q 451 474 411 474 q 604 418 547 474 q 661 281 661 362 q 620 160 661 204 q 531 115 578 115 q 492 128 510 115 q 460 175 473 140 q 560 236 528 203 q 593 305 593 269 q 564 357 593 337 q 480 377 536 377 q 309 318 376 377 q 242 180 242 259 q 328 37 242 96 q 578 -22 414 -22 q 546 -67 572 -50 q 461 -83 519 -83 q 237 1 329 -83 q 146 201 146 86 q 171 308 146 260 q 236 393 197 357 q 187 465 203 424 q 172 543 172 507 q 213 646 172 602 q 335 689 254 689 l 568 689 q 572 690 570 689 q 574 694 574 692 l 597 812 l 158 812 l 136 896 l 142 902 l 858 902 l 879 818 l 874 812 l 702 812 z "},"ऺ":{"ha":0,"x_min":120,"x_max":257,"o":"m 207 848 l 120 867 l 163 1090 l 170 1095 l 257 1076 l 214 853 l 207 848 z "},"ऻ":{"ha":389,"x_min":136,"x_max":585,"o":"m 585 818 l 581 812 l 406 812 l 247 -8 l 239 -13 l 142 13 l 298 812 l 158 812 l 136 896 l 142 902 l 321 902 l 358 1090 l 365 1095 l 452 1076 l 418 902 l 564 902 l 585 818 z "},"़":{"ha":0,"x_min":-69,"x_max":63,"o":"m -69 -26 q -45 26 -69 4 q 9 49 -20 49 q 48 33 33 49 q 63 -5 63 17 q 38 -58 63 -36 q -16 -81 14 -81 q -54 -65 -39 -81 q -69 -26 -69 -49 z "},"ऽ":{"ha":664,"x_min":153,"x_max":732,"o":"m 728 812 l 509 812 q 375 775 422 812 q 329 694 329 739 q 453 569 329 611 q 632 411 577 528 q 648 360 643 388 q 653 307 653 332 q 585 138 653 208 q 404 67 517 67 q 216 154 279 67 q 153 321 153 240 q 170 388 153 364 q 220 418 186 412 q 264 230 212 288 q 393 173 317 173 q 526 220 471 173 q 581 333 581 267 q 454 471 581 434 q 261 640 328 508 q 247 678 253 656 q 240 726 240 701 q 305 856 240 810 q 471 902 370 902 l 711 902 l 732 818 l 728 812 z "},"ा":{"ha":389,"x_min":136,"x_max":585,"o":"m 239 -13 l 142 13 l 298 812 l 158 812 l 136 896 l 142 902 l 564 902 l 585 818 l 581 812 l 406 812 l 247 -8 l 239 -13 z "},"ि":{"ha":389,"x_min":136,"x_max":1158,"o":"m 247 1037 q 334 1216 247 1139 q 583 1293 422 1293 q 908 1189 752 1293 q 1158 885 1064 1086 l 1093 849 q 886 1095 1023 1005 q 596 1184 749 1184 q 402 1131 471 1184 q 333 1002 333 1078 q 343 949 333 975 q 374 902 353 923 l 564 902 l 585 818 l 581 812 l 406 812 l 247 -8 l 239 -13 l 142 13 l 298 812 l 158 812 l 136 896 l 142 902 l 291 902 q 258 966 270 932 q 247 1037 247 1001 z "},"ी":{"ha":389,"x_min":-209,"x_max":585,"o":"m 239 -13 l 142 13 l 298 812 l 158 812 l 136 896 l 142 902 l 328 902 q 201 1135 275 1072 q 51 1198 128 1198 q -65 1157 -24 1198 q -106 1061 -106 1116 q -76 965 -106 1014 q 20 880 -45 916 l -85 881 q -182 991 -156 935 q -209 1093 -209 1047 q -145 1236 -209 1177 q 28 1295 -82 1295 q 232 1215 132 1295 q 399 902 332 1134 l 564 902 l 585 818 l 581 812 l 406 812 l 247 -8 l 239 -13 z "},"ु":{"ha":0,"x_min":-448,"x_max":77,"o":"m -243 -79 q -196 -11 -243 -42 q -88 20 -149 20 q 31 -32 -16 20 q 77 -154 77 -83 q 12 -296 77 -242 q -145 -349 -52 -349 q -372 -230 -296 -349 q -448 -59 -448 -111 q -436 -27 -448 -41 q -408 -9 -424 -14 q -317 -188 -378 -126 q -165 -250 -257 -250 q -41 -214 -89 -250 q 6 -127 6 -178 q -12 -82 6 -99 q -59 -66 -29 -66 q -117 -82 -87 -66 q -182 -134 -146 -98 q -229 -115 -214 -132 q -243 -79 -243 -98 z "},"ू":{"ha":0,"x_min":-313,"x_max":215,"o":"m -313 -162 q -251 -28 -313 -79 q -103 23 -189 23 q 120 -84 25 23 q 215 -229 215 -192 q 208 -247 215 -236 q 188 -262 201 -257 q 57 -124 124 -170 q -87 -77 -11 -77 q -199 -108 -156 -76 q -242 -189 -242 -140 q -227 -233 -242 -216 q -182 -249 -211 -250 q -125 -232 -155 -248 q -60 -184 -94 -216 q -14 -203 -28 -186 q 1 -239 1 -220 q -47 -304 1 -274 q -152 -334 -95 -334 q -268 -282 -223 -334 q -313 -162 -313 -229 z "},"ृ":{"ha":0,"x_min":-279,"x_max":105,"o":"m 0 -7 l -1 -15 q -163 -83 -121 -46 q -205 -155 -205 -121 q -189 -196 -205 -176 q -134 -216 -173 -216 q -28 -188 -86 -216 q 67 -128 31 -160 q 94 -151 82 -134 q 105 -189 105 -168 q 38 -266 105 -237 q -94 -296 -28 -296 q -230 -242 -181 -296 q -279 -125 -279 -189 q -229 -14 -279 -64 q -60 66 -178 37 l 0 -7 z "},"ॄ":{"ha":0,"x_min":-284,"x_max":102,"o":"m -121 -393 q -31 -367 -84 -393 q 60 -295 22 -342 q 89 -316 77 -302 q 102 -349 102 -330 q 45 -427 102 -389 q -85 -466 -11 -466 q -205 -422 -159 -466 q -252 -323 -252 -378 q -245 -284 -252 -306 q -214 -240 -238 -263 q -267 -190 -249 -221 q -284 -127 -284 -159 q -237 -24 -284 -79 q -58 63 -189 30 l 0 -7 l -1 -15 q -175 -92 -140 -51 q -210 -155 -210 -132 q -199 -183 -210 -172 q -166 -194 -188 -194 q -110 -178 -142 -194 q -12 -123 -78 -163 l 35 -191 l 31 -198 q -136 -289 -100 -255 q -172 -352 -172 -323 q -158 -382 -172 -371 q -121 -393 -145 -393 z "},"ॅ":{"ha":0,"x_min":16,"x_max":450,"o":"m 16 1204 q 25 1253 16 1240 q 56 1278 35 1267 q 106 1138 68 1179 q 197 1098 144 1098 q 309 1139 254 1098 q 401 1265 363 1179 q 439 1240 427 1254 q 450 1207 450 1227 q 377 1077 450 1146 q 204 1008 303 1008 q 64 1075 111 1008 q 16 1204 16 1142 z "},"ॆ":{"ha":0,"x_min":-369,"x_max":224,"o":"m 125 889 l 127 902 q 145 940 139 923 q 152 971 152 958 q 103 1028 152 1013 q -32 1057 54 1043 q -255 1110 -142 1074 q -369 1249 -369 1147 q -363 1290 -369 1273 q -344 1326 -357 1308 q -250 1220 -313 1244 q -81 1175 -188 1195 q 143 1109 63 1147 q 224 927 224 1070 q 223 915 224 921 q 222 902 223 908 l 220 889 l 125 889 z "},"े":{"ha":0,"x_min":-315,"x_max":216,"o":"m 137 902 q -33 1146 24 1090 q -142 1201 -90 1201 q -210 1183 -180 1201 q -262 1131 -239 1165 q -301 1158 -286 1140 q -315 1201 -315 1177 q -276 1272 -315 1240 q -169 1303 -236 1303 q -18 1232 -100 1303 q 216 902 65 1161 l 208 863 l 129 863 l 137 902 z "},"ै":{"ha":0,"x_min":-326,"x_max":224,"o":"m -102 1282 q -72 1342 -102 1313 q 14 1371 -41 1371 q 135 1288 75 1371 q 224 902 195 1205 l 218 869 l 121 869 l 127 902 q -32 1033 47 989 q -160 1078 -111 1078 q -219 1059 -193 1078 q -264 1009 -245 1040 q -311 1036 -296 1018 q -326 1076 -326 1053 q -289 1146 -326 1117 q -201 1175 -251 1175 q -40 1121 -134 1175 q 148 980 54 1067 q 93 1215 121 1166 q 31 1264 65 1264 q -15 1252 6 1264 q -52 1221 -35 1240 q -88 1245 -74 1230 q -102 1282 -102 1260 z "},"ॉ":{"ha":328,"x_min":-16,"x_max":524,"o":"m -16 1204 q -7 1253 -16 1240 q 24 1278 2 1267 q 73 1138 35 1179 q 165 1098 111 1098 q 276 1139 222 1098 q 369 1265 331 1179 q 406 1240 395 1254 q 418 1207 418 1227 q 344 1077 418 1146 q 172 1008 271 1008 q 31 1075 79 1008 q -16 1204 -16 1142 m 178 -13 l 81 13 l 237 812 l 97 812 l 75 896 l 81 902 l 503 902 l 524 818 l 519 812 l 345 812 l 186 -8 l 178 -13 z "},"ॊ":{"ha":389,"x_min":-184,"x_max":585,"o":"m 420 902 l 564 902 l 585 818 l 581 812 l 406 812 l 247 -8 l 239 -13 l 142 13 l 298 812 l 158 812 l 136 896 l 142 902 l 326 902 q 343 940 337 923 q 350 970 350 958 q 301 1027 350 1011 q 166 1057 253 1044 q -64 1110 56 1074 q -184 1250 -184 1146 q -178 1290 -184 1273 q -159 1326 -172 1308 q -61 1220 -126 1244 q 117 1175 5 1196 q 341 1109 261 1148 q 422 927 422 1070 q 421 915 422 921 q 420 902 421 908 z "},"ो":{"ha":389,"x_min":-132,"x_max":585,"o":"m 406 812 l 247 -8 l 239 -13 l 142 13 l 298 812 l 158 812 l 136 896 l 142 902 l 321 902 q 151 1146 208 1090 q 41 1201 94 1201 q -26 1183 4 1201 q -79 1131 -56 1165 q -117 1158 -102 1140 q -132 1201 -132 1177 q -92 1272 -132 1240 q 15 1303 -52 1303 q 166 1232 83 1303 q 399 902 249 1161 l 564 902 l 585 818 l 581 812 l 406 812 z "},"ौ":{"ha":389,"x_min":-138,"x_max":585,"o":"m 585 818 l 581 812 l 406 812 l 247 -8 l 239 -13 l 142 13 l 298 812 l 158 812 l 136 896 l 142 902 l 316 902 q 157 1033 235 989 q 28 1078 78 1078 q -30 1059 -4 1078 q -75 1009 -56 1040 q -123 1036 -108 1018 q -138 1076 -138 1053 q -100 1146 -138 1117 q -13 1175 -62 1175 q 149 1121 54 1175 q 336 980 243 1067 q 282 1215 310 1166 q 219 1264 254 1264 q 174 1252 195 1264 q 136 1221 153 1240 q 100 1245 115 1230 q 86 1282 86 1260 q 117 1342 86 1313 q 202 1371 147 1371 q 324 1288 264 1371 q 413 902 384 1205 l 564 902 l 585 818 z "},"्":{"ha":0,"x_min":-262,"x_max":176,"o":"m -262 -129 q -232 -81 -262 -100 q -148 -62 -201 -62 q -77 -73 -117 -62 q 11 -116 -37 -83 q 131 -236 85 -168 q 176 -332 176 -305 q 170 -350 176 -340 q 149 -366 163 -361 q 1 -211 68 -247 q -126 -174 -66 -174 q -182 -179 -155 -174 q -229 -189 -210 -184 q -253 -159 -245 -174 q -262 -129 -262 -144 z "},"ॏ":{"ha":389,"x_min":-208,"x_max":585,"o":"m 406 812 l 247 -8 l 239 -13 l 142 13 l 298 812 l 158 812 l 136 896 l 142 902 l 324 902 q 335 930 331 917 q 340 952 340 944 q 286 994 340 985 q 102 1009 231 1002 q -127 1053 -46 1017 q -208 1163 -208 1089 q -202 1202 -208 1185 q -183 1238 -196 1219 q -101 1143 -162 1168 q 83 1106 -39 1118 q 285 1078 231 1092 q 373 1010 338 1065 q 329 1109 370 1082 q 195 1160 288 1136 q 39 1209 101 1185 q -24 1297 -24 1233 q -16 1341 -24 1320 q 6 1379 -8 1362 q 58 1306 16 1326 q 180 1261 100 1286 q 367 1178 309 1221 q 425 1000 425 1134 q 424 954 425 979 q 420 902 422 930 l 564 902 l 585 818 l 581 812 l 406 812 z "},"ॐ":{"ha":1213,"x_min":115,"x_max":1267,"o":"m 1033 1005 q 1008 951 1033 974 q 952 928 983 928 q 913 945 928 928 q 898 985 898 962 q 923 1038 898 1015 q 978 1061 948 1061 q 1018 1044 1002 1061 q 1033 1005 1033 1028 m 751 941 q 760 989 751 975 q 791 1013 770 1002 q 843 874 804 914 q 939 833 883 833 q 1046 874 994 833 q 1136 1001 1099 915 q 1173 973 1162 988 q 1185 934 1185 958 q 1114 806 1185 869 q 945 743 1042 743 q 800 810 848 743 q 751 941 751 878 m 884 363 q 887 384 884 376 q 893 398 890 391 q 958 341 928 355 q 1018 327 988 327 q 1134 381 1083 327 q 1185 508 1185 435 q 1164 574 1185 549 q 1110 599 1144 599 q 941 479 1018 599 q 751 359 863 359 q 711 365 730 359 q 673 382 691 371 q 683 340 680 363 q 686 296 686 317 q 608 110 686 184 q 407 35 530 35 q 179 166 243 35 q 115 395 115 297 q 129 480 115 459 q 182 506 143 502 q 238 232 178 318 q 400 145 299 145 q 544 197 487 145 q 602 325 602 248 q 586 396 602 363 q 544 448 571 429 q 463 423 506 433 q 373 408 419 413 l 339 515 l 344 522 q 573 584 503 530 q 644 722 644 637 q 613 798 644 772 q 532 823 583 823 q 411 781 460 823 q 351 676 363 739 q 288 694 311 676 q 266 744 266 713 q 329 848 266 798 q 503 899 393 899 q 673 840 609 899 q 736 691 736 782 q 706 574 736 624 q 623 488 675 524 q 665 461 642 468 q 707 455 689 455 q 888 574 819 455 q 1078 694 957 694 q 1210 630 1152 694 q 1267 471 1267 566 q 1199 298 1267 367 q 1037 230 1130 230 q 922 275 960 230 q 884 363 884 321 z "},"॑":{"ha":0,"x_min":151,"x_max":302,"o":"m 238 1004 l 151 1023 l 208 1314 l 214 1319 l 302 1300 l 245 1009 l 238 1004 z "},"॒":{"ha":0,"x_min":-409,"x_max":-6,"o":"m -391 -199 l -409 -128 l -404 -122 l -24 -122 l -6 -193 l -12 -199 l -391 -199 z "},"॓":{"ha":0,"x_min":107,"x_max":336,"o":"m 266 1015 l 107 1263 l 110 1272 l 177 1309 l 336 1061 l 333 1053 l 266 1015 z "},"॔":{"ha":0,"x_min":66,"x_max":374,"o":"m 119 1015 l 66 1053 l 66 1061 l 321 1309 l 374 1272 l 374 1263 l 119 1015 z "},"ॖ":{"ha":0,"x_min":-346,"x_max":216,"o":"m -346 -111 q -338 -86 -346 -95 q -321 -71 -330 -77 q -221 -175 -283 -140 q -86 -211 -159 -211 q 57 -175 -12 -211 q 173 -75 126 -140 q 205 -99 194 -83 q 216 -134 216 -115 q 132 -245 216 -191 q -66 -299 47 -299 q -272 -230 -197 -299 q -346 -111 -346 -160 z "},"ॗ":{"ha":0,"x_min":-378,"x_max":216,"o":"m -346 -111 q -338 -86 -346 -95 q -321 -71 -330 -77 q -221 -175 -283 -140 q -86 -211 -159 -211 q 57 -175 -12 -211 q 173 -75 126 -140 q 205 -99 194 -83 q 216 -134 216 -115 q 132 -245 216 -191 q -66 -299 47 -299 q -272 -230 -197 -299 q -346 -111 -346 -160 m 175 -347 q 107 -437 175 -396 q -67 -477 39 -477 q -297 -403 -215 -477 q -378 -280 -378 -329 q -372 -256 -378 -265 q -354 -240 -365 -247 q -245 -348 -317 -307 q -79 -389 -174 -389 q 50 -365 -7 -389 q 149 -298 108 -340 q 169 -320 162 -307 q 175 -347 175 -333 z "},"क़":{"ha":1046,"x_min":136,"x_max":1242,"o":"m 581 429 q 555 529 592 486 q 446 572 517 572 q 302 513 360 572 q 243 376 243 454 q 280 280 243 317 q 377 243 317 243 q 500 282 442 243 q 572 385 559 322 l 581 429 m 764 812 l 715 565 q 795 614 754 597 q 882 632 836 632 q 1013 576 960 632 q 1065 418 1065 519 q 1000 212 1065 288 q 878 136 935 136 q 830 152 851 136 q 798 195 808 169 q 938 311 886 237 q 989 454 989 386 q 967 522 989 497 q 908 546 945 546 q 767 487 846 546 q 670 336 688 429 l 604 -8 l 597 -13 l 500 13 l 534 189 q 466 158 498 167 q 405 149 434 149 q 231 226 311 149 q 151 413 151 303 q 230 594 151 519 q 416 669 309 669 q 516 648 464 669 q 608 574 569 627 l 655 812 l 158 812 l 136 896 l 142 902 l 1221 902 l 1242 818 l 1238 812 l 764 812 m 201 -26 q 226 26 201 4 q 280 49 250 49 q 318 33 303 49 q 333 -5 333 17 q 309 -58 333 -36 q 255 -81 284 -81 q 216 -65 231 -81 q 201 -26 201 -49 z "},"ख़":{"ha":1062,"x_min":136,"x_max":1259,"o":"m 899 441 q 875 533 908 490 q 776 576 842 576 q 657 527 704 576 q 610 413 610 477 q 645 328 610 358 q 729 297 680 297 q 836 333 787 297 q 894 417 884 369 l 899 441 m 1079 812 l 920 -8 l 912 -13 l 815 13 l 860 245 q 803 221 828 229 q 752 214 777 214 q 593 284 664 214 q 523 451 523 355 q 589 606 523 543 q 751 669 655 669 q 847 646 804 669 q 924 576 891 623 l 970 812 l 444 812 q 461 722 455 770 q 468 632 468 674 q 410 436 468 513 q 241 328 353 359 q 406 150 300 219 q 665 58 512 81 q 625 12 650 26 q 563 -3 600 -3 q 281 146 427 -3 q 136 419 136 294 q 165 499 136 471 q 245 528 195 528 q 287 523 265 528 q 330 509 309 518 q 369 566 349 530 q 389 691 389 602 q 386 750 389 716 q 377 812 382 785 l 158 812 l 136 896 l 142 902 l 1238 902 l 1259 818 l 1254 812 l 1079 812 m 142 -26 q 167 26 142 4 q 221 49 191 49 q 259 33 244 49 q 274 -5 274 17 q 250 -58 274 -36 q 196 -81 225 -81 q 157 -65 172 -81 q 142 -26 142 -49 z "},"ग़":{"ha":842,"x_min":136,"x_max":1038,"o":"m 859 812 l 700 -8 l 692 -13 l 595 13 l 751 812 l 456 812 l 367 355 q 336 273 356 300 q 286 246 315 246 q 188 307 235 246 q 140 406 140 367 q 155 437 140 423 q 202 452 170 452 l 280 452 l 351 812 l 158 812 l 136 896 l 142 902 l 1017 902 l 1038 818 l 1034 812 l 859 812 m 291 42 q 315 94 291 72 q 370 117 340 117 q 408 101 393 117 q 423 62 423 85 q 398 9 423 32 q 345 -13 374 -13 q 306 3 321 -13 q 291 42 291 19 z "},"ज़":{"ha":964,"x_min":136,"x_max":1160,"o":"m 981 812 l 822 -8 l 814 -13 l 718 13 l 819 536 l 593 536 q 630 460 618 501 q 642 381 642 418 q 572 217 642 280 q 406 154 501 154 q 216 283 267 154 q 165 506 165 413 q 177 594 165 567 q 237 626 189 621 q 272 351 227 437 q 398 264 317 264 q 507 304 458 264 q 557 418 557 345 q 528 500 557 465 q 439 536 498 536 l 418 620 l 422 626 l 836 626 l 873 812 l 158 812 l 136 896 l 142 902 l 1139 902 l 1160 818 l 1156 812 l 981 812 m 289 -39 q 313 13 289 -9 q 368 35 338 35 q 406 19 391 35 q 420 -19 420 3 q 396 -72 420 -50 q 342 -94 372 -94 q 304 -78 319 -94 q 289 -39 289 -62 z "},"ड़":{"ha":713,"x_min":132,"x_max":910,"o":"m 743 812 l 703 606 l 696 600 l 428 600 q 340 577 363 600 q 317 521 317 553 q 335 477 317 494 q 391 461 354 461 q 469 468 420 461 q 545 475 517 475 q 652 421 608 475 q 697 288 697 366 q 630 127 697 187 q 453 67 564 67 q 212 178 293 67 q 132 354 132 288 q 142 393 132 376 q 172 418 153 409 q 280 234 209 294 q 437 173 352 173 q 571 211 511 173 q 631 305 631 248 q 615 348 631 330 q 570 366 600 366 q 500 360 550 366 q 424 354 450 354 q 292 418 349 354 q 235 559 235 481 q 274 658 235 621 q 391 696 312 696 l 610 696 q 614 697 612 696 q 616 701 616 699 l 638 812 l 158 812 l 136 896 l 142 902 l 889 902 l 910 818 l 905 812 l 743 812 m 319 -94 q 343 -41 319 -64 q 398 -19 368 -19 q 436 -35 421 -19 q 451 -73 451 -51 q 427 -126 451 -104 q 372 -149 402 -149 q 334 -133 349 -149 q 319 -94 319 -117 z "},"ढ़":{"ha":718,"x_min":136,"x_max":914,"o":"m 729 812 l 682 568 l 675 562 l 525 562 q 313 490 394 562 q 233 315 233 418 q 280 186 233 243 q 422 130 327 130 q 455 132 437 130 q 490 138 473 134 q 444 216 458 178 q 430 286 430 253 q 477 401 430 359 q 587 444 524 444 q 692 397 652 444 q 732 284 732 349 q 645 112 732 182 q 444 41 558 41 q 229 138 313 41 q 145 355 145 235 q 244 571 145 480 q 510 662 343 662 l 590 662 q 594 663 593 662 q 596 667 595 665 l 625 812 l 158 812 l 136 896 l 142 902 l 893 902 l 914 818 l 909 812 l 729 812 m 669 302 q 654 344 669 328 q 614 360 639 360 q 547 330 578 360 q 517 254 517 300 q 524 209 517 234 q 546 159 531 184 q 634 223 600 184 q 669 302 669 262 m 326 -94 q 350 -41 326 -64 q 405 -19 375 -19 q 443 -35 428 -19 q 458 -73 458 -51 q 433 -126 458 -104 q 379 -149 409 -149 q 341 -133 356 -149 q 326 -94 326 -117 z "},"फ़":{"ha":1004,"x_min":136,"x_max":1200,"o":"m 354 812 l 283 448 q 292 358 271 389 q 359 328 312 328 q 484 374 421 328 q 559 488 546 421 l 622 812 l 354 812 m 846 639 q 975 587 922 639 q 1027 435 1027 534 q 963 232 1027 307 q 841 156 899 156 q 793 173 814 156 q 761 215 772 189 q 899 327 848 256 q 951 467 951 399 q 930 530 951 507 q 872 553 909 553 q 733 496 809 553 q 641 351 658 440 l 571 -8 l 564 -13 l 467 13 l 519 283 q 447 254 481 263 q 382 245 412 245 q 225 322 286 245 q 186 505 165 399 l 245 812 l 158 812 l 136 896 l 142 902 l 1179 902 l 1200 818 l 1196 812 l 730 812 l 684 576 q 763 623 723 608 q 846 639 804 639 m 189 42 q 214 94 189 72 q 268 117 238 117 q 306 101 291 117 q 321 62 321 85 q 297 9 321 32 q 243 -13 272 -13 q 204 3 220 -13 q 189 42 189 19 z "},"य़":{"ha":846,"x_min":136,"x_max":1043,"o":"m 705 -8 l 697 -13 l 600 13 l 642 227 q 563 189 602 201 q 481 177 524 177 q 293 254 378 177 q 153 502 208 332 l 158 509 q 352 600 307 548 q 398 730 398 651 q 395 774 398 751 q 388 812 393 797 l 158 812 l 136 896 l 142 902 l 1022 902 l 1043 818 l 1038 812 l 864 812 l 705 -8 m 456 812 q 474 742 467 780 q 481 671 481 704 q 426 521 481 580 q 264 426 370 462 q 348 317 295 349 q 455 286 400 286 q 602 336 532 286 q 688 468 673 386 l 755 812 l 456 812 m 155 42 q 180 94 155 72 q 234 117 204 117 q 272 101 257 117 q 288 62 288 85 q 263 9 288 32 q 209 -13 238 -13 q 171 3 186 -13 q 155 42 155 19 z "},"ॠ":{"ha":1201,"x_min":136,"x_max":1398,"o":"m 805 812 l 741 484 q 848 504 798 488 q 945 548 899 520 q 933 583 937 566 q 930 614 930 600 q 958 680 930 652 q 1030 709 986 709 q 1096 681 1072 709 q 1120 618 1120 653 q 1098 553 1120 585 q 1037 492 1076 521 q 1069 390 1053 437 q 1101 302 1084 343 l 1098 297 q 953 202 987 238 q 919 136 919 167 q 936 98 919 112 q 979 83 952 83 q 1073 112 1018 83 q 1162 181 1127 140 q 1191 157 1177 175 q 1206 115 1206 138 q 1150 32 1206 71 q 1022 -7 1095 -7 q 889 50 939 -7 q 840 171 840 106 q 878 267 840 225 q 1008 358 916 309 q 992 404 1000 380 q 977 454 985 427 q 858 406 924 425 q 722 385 791 387 l 646 -8 l 638 -13 l 541 13 l 607 354 q 422 232 505 291 q 254 107 338 174 l 186 187 l 188 195 q 378 332 280 266 q 593 465 477 398 q 467 566 514 535 q 382 596 419 596 q 305 569 345 596 q 227 492 265 541 q 189 530 202 509 q 176 572 176 551 q 224 651 176 611 q 354 691 273 691 q 461 658 407 691 q 639 517 516 625 l 696 812 l 158 812 l 136 896 l 142 902 l 1377 902 l 1398 818 l 1393 812 l 805 812 z "},"ॡ":{"ha":957,"x_min":136,"x_max":1154,"o":"m 761 -197 q 856 -171 800 -197 q 946 -100 911 -144 q 976 -121 963 -106 q 988 -154 988 -135 q 932 -232 988 -193 q 800 -271 876 -271 q 680 -228 726 -271 q 633 -129 633 -184 q 641 -90 633 -109 q 671 -45 648 -71 q 616 3 636 -28 q 595 68 595 34 q 637 159 595 124 q 745 246 679 193 q 864 359 829 313 q 899 449 899 405 q 877 503 899 484 q 819 523 854 523 q 687 470 760 523 q 541 299 613 418 l 533 297 l 454 354 q 489 412 471 385 q 528 463 508 439 q 469 517 500 499 q 404 534 438 534 q 293 482 340 534 q 246 351 246 430 q 289 185 246 277 q 419 23 332 94 q 399 2 412 10 q 374 -5 387 -5 q 234 113 321 -5 q 146 373 146 231 q 212 554 146 481 q 383 627 277 627 q 481 602 435 627 q 576 514 528 577 q 663 578 618 555 q 745 611 707 602 l 785 812 l 158 812 l 136 896 l 142 902 l 1133 902 l 1154 818 l 1149 812 l 886 812 l 846 608 q 937 538 901 591 q 973 416 973 486 q 935 292 973 337 q 846 205 897 247 q 720 102 764 138 q 675 37 675 66 q 684 16 675 25 q 713 7 692 7 q 774 22 736 7 q 875 72 811 37 l 921 5 l 918 -3 q 748 -101 783 -64 q 713 -162 713 -139 q 727 -189 713 -180 q 761 -197 740 -197 z "},"ॢ":{"ha":0,"x_min":-382,"x_max":142,"o":"m -382 -203 q -339 -92 -382 -136 q -228 -47 -296 -47 q -166 -61 -196 -47 q -104 -111 -136 -75 q -35 -66 -70 -77 q 24 -54 0 -54 q 109 -91 75 -54 q 142 -187 142 -128 q 124 -263 142 -235 q 66 -330 105 -291 q -6 -398 26 -370 q -38 -448 -38 -427 q -32 -462 -38 -457 q -14 -467 -25 -467 q 44 -450 9 -467 q 101 -400 78 -433 q 124 -418 113 -405 q 134 -447 134 -431 q 99 -499 134 -475 q 20 -524 64 -524 q -63 -489 -31 -524 q -96 -420 -96 -455 q -67 -356 -96 -388 q -4 -292 -37 -323 q 64 -221 41 -250 q 88 -159 88 -191 q 77 -129 88 -139 q 44 -119 65 -119 q -38 -152 12 -119 q -123 -288 -87 -184 l -132 -292 l -191 -258 q -167 -199 -180 -225 q -140 -152 -154 -172 q -177 -127 -157 -135 q -217 -119 -197 -119 q -285 -146 -257 -119 q -313 -216 -313 -173 q -285 -313 -313 -259 q -203 -408 -257 -367 q -219 -425 -208 -418 q -239 -432 -229 -432 q -327 -361 -272 -432 q -382 -203 -382 -290 z "},"ॣ":{"ha":0,"x_min":-382,"x_max":149,"o":"m -382 -203 q -339 -92 -382 -136 q -228 -47 -296 -47 q -166 -61 -196 -47 q -104 -111 -136 -75 q -35 -66 -70 -77 q 24 -54 0 -54 q 110 -90 75 -54 q 144 -179 144 -126 q 124 -250 144 -220 q 55 -316 103 -280 q -10 -365 26 -338 q -46 -420 -46 -392 q -41 -434 -46 -428 q -23 -441 -36 -441 q 17 -430 -8 -441 q 83 -395 42 -419 l 109 -448 l 104 -456 q -3 -513 20 -490 q -25 -551 -25 -536 q -15 -571 -25 -564 q 10 -578 -5 -578 q 67 -563 33 -578 q 125 -517 102 -548 q 143 -536 136 -524 q 149 -561 149 -549 q 114 -612 149 -590 q 36 -635 79 -635 q -48 -600 -17 -635 q -79 -529 -79 -566 q -73 -500 -79 -511 q -55 -474 -66 -488 q -91 -442 -77 -463 q -105 -395 -105 -421 q -85 -339 -105 -363 q -15 -279 -66 -315 q 59 -221 30 -245 q 88 -159 88 -197 q 77 -129 88 -139 q 44 -119 65 -119 q -37 -150 12 -119 q -122 -281 -85 -181 l -130 -286 l -191 -258 q -167 -199 -180 -225 q -140 -152 -154 -172 q -177 -127 -157 -135 q -217 -119 -197 -119 q -285 -146 -257 -119 q -313 -216 -313 -173 q -285 -313 -313 -259 q -203 -408 -257 -367 q -219 -425 -208 -418 q -239 -432 -229 -432 q -327 -361 -272 -432 q -382 -203 -382 -290 z "},"।":{"ha":583,"x_min":336,"x_max":619,"o":"m 441 -35 l 434 -40 l 336 -14 l 515 902 l 522 907 l 619 881 l 441 -35 z "},"॥":{"ha":834,"x_min":336,"x_max":870,"o":"m 692 -35 l 685 -40 l 587 -14 l 766 902 l 772 907 l 870 881 l 692 -35 m 441 -35 l 434 -40 l 336 -14 l 515 902 l 522 907 l 619 881 l 441 -35 z "},"०":{"ha":704,"x_min":144,"x_max":724,"o":"m 461 709 q 650 625 576 709 q 724 431 724 541 q 627 218 724 302 q 414 133 530 133 q 222 219 299 133 q 144 413 144 305 q 241 621 144 532 q 461 709 338 709 m 643 467 q 602 571 643 532 q 490 610 560 610 q 308 538 382 610 q 233 375 233 467 q 272 271 233 313 q 385 229 312 229 q 562 296 481 229 q 643 467 643 363 z "},"१":{"ha":549,"x_min":133,"x_max":610,"o":"m 264 231 q 339 167 296 205 q 411 102 382 130 q 479 20 460 55 q 498 -44 498 -15 q 467 -126 498 -91 q 399 -161 436 -161 q 353 -143 374 -161 q 326 -100 332 -126 q 382 -54 366 -78 q 399 -14 399 -31 q 388 13 399 -1 q 347 54 376 26 q 237 158 282 117 q 133 252 193 198 l 135 259 q 266 364 208 316 q 366 451 324 412 q 259 541 305 488 q 213 665 213 594 q 279 810 213 755 q 423 866 345 866 q 557 805 504 866 q 610 659 610 744 q 529 469 610 559 q 264 231 449 378 m 447 781 q 356 742 395 781 q 317 644 317 702 q 339 570 317 608 q 415 496 361 532 q 503 606 480 562 q 525 693 525 650 q 503 759 525 736 q 447 781 481 781 z "},"२":{"ha":720,"x_min":165,"x_max":760,"o":"m 567 17 q 611 23 590 17 q 657 41 631 28 q 671 16 666 31 q 676 -13 676 1 q 647 -75 676 -50 q 569 -100 617 -100 q 440 -35 506 -100 q 328 208 375 31 q 317 207 321 207 q 304 206 312 206 q 199 241 233 206 q 165 318 165 277 q 197 389 165 361 q 271 417 229 417 q 332 397 304 417 q 373 336 359 376 q 600 486 528 395 q 673 659 673 576 q 637 749 673 718 q 545 781 602 781 q 404 727 462 781 q 332 603 346 673 q 270 621 292 603 q 248 672 248 639 q 330 803 248 741 q 519 866 412 866 q 692 795 625 866 q 760 625 760 724 q 664 403 760 512 q 398 229 569 294 q 468 61 427 106 q 567 17 508 17 z "},"३":{"ha":641,"x_min":132,"x_max":704,"o":"m 454 -56 q 499 -51 478 -56 q 545 -32 519 -45 q 559 -57 554 -42 q 564 -87 564 -72 q 534 -149 564 -123 q 459 -174 504 -174 q 357 -122 404 -174 q 284 43 311 -71 q 172 77 212 43 q 132 155 132 111 q 161 225 132 196 q 234 255 191 255 q 298 228 273 255 q 333 152 324 200 q 505 210 448 161 q 563 320 563 259 q 546 380 563 350 q 491 429 530 410 q 408 408 453 417 q 311 395 363 399 l 277 501 l 283 508 q 537 568 459 516 q 616 694 616 619 q 584 764 616 739 q 498 789 551 789 q 374 745 424 789 q 311 635 323 701 q 248 654 271 635 q 226 703 226 672 q 292 812 226 760 q 471 865 358 865 q 642 806 579 865 q 704 662 704 747 q 673 551 704 600 q 566 459 643 502 q 630 381 607 428 q 653 285 653 334 q 574 127 653 197 q 345 49 495 58 q 385 -33 363 -9 q 454 -56 408 -56 z "},"४":{"ha":753,"x_min":216,"x_max":869,"o":"m 868 783 q 693 596 760 668 q 532 422 627 525 q 612 311 586 361 q 638 212 638 261 q 572 68 638 109 q 449 26 506 26 q 324 82 376 26 q 271 213 271 138 q 301 308 271 264 q 414 444 331 353 q 282 577 347 507 q 216 722 216 648 q 261 824 216 781 q 358 866 307 866 q 409 845 391 866 q 435 788 427 825 q 349 755 385 783 q 313 686 313 727 q 351 609 313 649 q 463 496 388 570 q 603 645 536 575 q 794 847 669 715 l 869 789 l 868 783 m 353 184 q 375 135 353 153 q 428 117 397 117 q 510 149 473 117 q 547 235 547 182 q 531 303 547 268 q 484 371 514 338 q 377 248 401 282 q 353 184 353 214 z "},"५":{"ha":710,"x_min":142,"x_max":732,"o":"m 723 456 q 706 384 723 420 q 661 312 690 348 q 713 198 693 254 q 732 94 732 142 q 687 -25 732 20 q 587 -71 641 -71 q 540 -53 560 -71 q 513 15 520 -36 q 627 67 597 32 q 656 142 656 103 q 645 200 656 170 q 613 260 633 229 q 494 178 560 211 q 363 145 427 145 q 208 213 275 145 q 142 383 142 280 q 220 608 142 483 q 409 857 299 732 l 498 798 l 497 793 q 294 529 362 644 q 226 342 226 414 q 254 269 226 296 q 338 241 282 241 q 440 264 387 241 q 559 351 494 288 q 534 405 543 378 q 525 456 525 432 q 557 536 525 503 q 634 568 589 568 q 700 535 677 568 q 723 456 723 501 z "},"६":{"ha":665,"x_min":155,"x_max":649,"o":"m 649 248 q 630 184 649 214 q 581 130 610 154 q 626 40 612 79 q 639 -28 639 1 q 608 -108 639 -79 q 538 -138 576 -138 q 492 -120 513 -138 q 466 -52 472 -102 q 541 -21 522 -43 q 560 24 560 0 q 553 54 560 37 q 528 96 547 71 q 461 71 497 80 q 389 62 425 62 q 220 132 284 62 q 155 287 155 202 q 192 400 155 349 q 298 490 229 450 q 242 559 262 519 q 222 643 222 598 q 298 801 222 734 q 490 867 374 867 q 591 837 561 867 q 619 747 621 808 q 578 756 609 751 q 514 762 547 762 q 367 715 419 762 q 315 613 315 669 q 327 564 315 588 q 368 520 340 540 q 449 543 406 534 q 542 555 493 551 l 585 460 l 581 454 q 304 374 371 436 q 237 254 237 311 q 274 176 237 203 q 363 149 311 149 q 417 155 388 149 q 472 176 446 161 q 461 203 465 189 q 458 231 458 218 q 490 306 458 273 q 567 338 523 338 q 627 311 606 338 q 649 248 649 283 z "},"७":{"ha":702,"x_min":144,"x_max":765,"o":"m 385 599 q 448 749 385 696 q 579 802 511 802 q 714 715 664 802 q 765 500 765 628 q 675 196 765 301 q 452 92 585 92 q 220 244 296 92 q 144 583 144 397 q 174 793 144 745 q 248 841 204 841 q 262 348 199 495 q 441 201 326 201 q 554 238 502 201 q 642 343 607 274 q 456 425 528 347 q 385 599 385 503 m 598 710 q 517 674 559 710 q 475 564 475 637 q 526 454 475 497 q 667 408 578 412 q 682 459 674 430 q 690 538 690 489 q 666 661 690 612 q 598 710 642 710 z "},"८":{"ha":669,"x_min":139,"x_max":747,"o":"m 677 254 q 578 129 677 198 q 368 60 479 60 q 207 122 275 60 q 139 282 139 184 q 183 413 139 353 q 359 587 227 473 q 558 750 461 676 q 673 840 654 824 l 747 783 l 747 777 q 622 674 724 758 q 414 499 519 590 q 257 350 294 395 q 221 254 221 306 q 252 178 221 208 q 340 147 283 147 q 489 196 413 147 q 635 327 564 244 q 666 291 655 309 q 677 254 677 273 z "},"९":{"ha":587,"x_min":180,"x_max":630,"o":"m 363 399 q 416 319 380 375 q 475 222 452 263 q 505 154 495 186 q 515 94 515 123 q 474 -10 515 27 q 393 -47 434 -47 q 348 -30 366 -47 q 319 26 329 -12 q 390 66 360 41 q 420 132 420 92 q 383 235 420 176 q 288 380 347 294 q 209 513 238 453 q 180 633 180 572 q 247 797 180 732 q 413 861 314 861 q 568 798 506 861 q 630 642 630 734 q 561 474 630 541 q 363 399 491 406 m 550 665 q 521 743 550 712 q 442 774 492 774 q 328 729 380 774 q 275 595 275 684 q 282 542 275 568 q 304 491 290 516 q 488 543 425 495 q 550 665 550 591 z "},"॰":{"ha":704,"x_min":240,"x_max":724,"o":"m 503 899 q 662 831 601 899 q 724 674 724 763 q 645 504 724 570 q 469 438 567 438 q 305 507 370 438 q 240 663 240 575 q 319 830 240 760 q 503 899 399 899 m 641 701 q 608 781 641 752 q 520 810 574 810 q 382 760 440 810 q 323 639 323 709 q 357 557 323 589 q 447 524 391 524 q 580 573 519 524 q 641 701 641 623 z "},"ॱ":{"ha":292,"x_min":247,"x_max":378,"o":"m 247 846 q 271 899 247 876 q 326 921 296 921 q 363 905 349 921 q 378 867 378 889 q 354 814 378 836 q 300 791 330 791 q 262 807 277 791 q 247 846 247 823 z "},"ॲ":{"ha":1051,"x_min":137,"x_max":1297,"o":"m 863 1204 q 872 1253 863 1240 q 903 1278 882 1267 q 953 1138 915 1179 q 1044 1098 991 1098 q 1156 1139 1101 1098 q 1249 1265 1211 1179 q 1286 1240 1274 1254 q 1297 1207 1297 1227 q 1224 1077 1297 1146 q 1051 1008 1150 1008 q 911 1075 958 1008 q 863 1204 863 1142 m 268 758 q 331 858 268 810 q 502 905 393 905 q 674 847 610 905 q 738 698 738 789 q 715 596 738 642 q 627 502 692 550 q 684 479 654 486 q 741 472 713 472 q 857 509 806 472 q 921 615 907 546 l 960 812 l 849 812 l 827 896 l 833 902 l 1227 902 l 1248 818 l 1243 812 l 1068 812 l 909 -8 l 901 -13 l 804 13 l 882 410 q 831 394 854 399 q 784 389 807 389 q 736 393 761 389 q 689 407 712 398 q 703 356 698 384 q 708 301 708 328 q 630 117 708 193 q 429 42 552 42 q 201 176 264 42 q 137 405 137 309 q 153 489 137 468 q 204 513 170 510 q 258 238 195 325 q 422 152 321 152 q 566 204 509 152 q 623 332 623 256 q 604 411 623 374 q 551 463 585 447 q 480 442 518 451 q 397 429 441 433 l 363 535 l 368 542 q 581 600 515 549 q 646 730 646 650 q 615 804 646 779 q 532 830 584 830 q 413 790 462 830 q 353 690 365 749 q 291 708 313 690 q 268 758 268 727 z "},"ॳ":{"ha":1051,"x_min":137,"x_max":1248,"o":"m 1248 818 l 1243 812 l 1068 812 l 909 -8 l 901 -13 l 804 13 l 882 410 q 831 394 854 399 q 784 389 807 389 q 736 393 761 389 q 689 407 712 398 q 703 356 698 384 q 708 301 708 328 q 630 117 708 193 q 429 42 552 42 q 201 176 264 42 q 137 405 137 309 q 153 489 137 468 q 204 513 170 510 q 258 238 195 325 q 422 152 321 152 q 566 204 509 152 q 623 332 623 256 q 604 411 623 374 q 551 463 585 447 q 480 442 518 451 q 397 429 441 433 l 363 535 l 368 542 q 581 600 515 549 q 646 730 646 650 q 615 804 646 779 q 532 830 584 830 q 413 790 462 830 q 353 690 365 749 q 291 708 313 690 q 268 758 268 727 q 331 858 268 810 q 502 905 393 905 q 674 847 610 905 q 738 698 738 789 q 715 596 738 642 q 627 502 692 550 q 684 479 654 486 q 741 472 713 472 q 857 509 806 472 q 921 615 907 546 l 960 812 l 849 812 l 827 896 l 833 902 l 983 902 l 1020 1090 l 1027 1095 l 1114 1076 l 1080 902 l 1227 902 l 1248 818 z "},"ॴ":{"ha":1379,"x_min":137,"x_max":1575,"o":"m 1575 818 l 1571 812 l 1396 812 l 1236 -8 l 1229 -13 l 1132 13 l 1287 812 l 1068 812 l 909 -8 l 901 -13 l 804 13 l 882 410 q 831 394 854 399 q 784 389 807 389 q 736 393 761 389 q 689 407 712 398 q 703 356 698 384 q 708 301 708 328 q 630 117 708 193 q 429 42 552 42 q 201 176 264 42 q 137 405 137 309 q 153 489 137 468 q 204 513 170 510 q 258 238 195 325 q 422 152 321 152 q 566 204 509 152 q 623 332 623 256 q 604 411 623 374 q 551 463 585 447 q 480 442 518 451 q 397 429 441 433 l 363 535 l 368 542 q 581 600 515 549 q 646 730 646 650 q 615 804 646 779 q 532 830 584 830 q 413 790 462 830 q 353 690 365 749 q 291 708 313 690 q 268 758 268 727 q 331 858 268 810 q 502 905 393 905 q 674 847 610 905 q 738 698 738 789 q 715 596 738 642 q 627 502 692 550 q 684 479 654 486 q 741 472 713 472 q 857 509 806 472 q 921 615 907 546 l 960 812 l 849 812 l 827 896 l 833 902 l 1311 902 l 1348 1090 l 1354 1095 l 1441 1076 l 1408 902 l 1554 902 l 1575 818 z "},"ॵ":{"ha":1379,"x_min":137,"x_max":1575,"o":"m 1171 1261 q 1357 1178 1299 1221 q 1415 1000 1415 1134 q 1414 954 1415 979 q 1410 902 1413 930 l 1554 902 l 1575 818 l 1571 812 l 1396 812 l 1236 -8 l 1229 -13 l 1132 13 l 1287 812 l 1068 812 l 909 -8 l 901 -13 l 804 13 l 882 410 q 831 394 854 399 q 784 389 807 389 q 736 393 761 389 q 689 407 712 398 q 703 356 698 384 q 708 301 708 328 q 630 117 708 193 q 429 42 552 42 q 201 176 264 42 q 137 405 137 309 q 153 489 137 468 q 204 513 170 510 q 258 238 195 325 q 422 152 321 152 q 566 204 509 152 q 623 332 623 256 q 604 411 623 374 q 551 463 585 447 q 480 442 518 451 q 397 429 441 433 l 363 535 l 368 542 q 581 600 515 549 q 646 730 646 650 q 615 804 646 779 q 532 830 584 830 q 413 790 462 830 q 353 690 365 749 q 291 708 313 690 q 268 758 268 727 q 331 858 268 810 q 502 905 393 905 q 674 847 610 905 q 738 698 738 789 q 715 596 738 642 q 627 502 692 550 q 684 479 654 486 q 741 472 713 472 q 857 509 806 472 q 921 615 907 546 l 960 812 l 849 812 l 827 896 l 833 902 l 1314 902 q 1325 930 1321 917 q 1330 952 1330 944 q 1276 994 1330 985 q 1093 1009 1221 1002 q 863 1053 944 1017 q 782 1163 782 1089 q 788 1202 782 1185 q 807 1238 794 1219 q 888 1143 827 1168 q 1074 1106 949 1118 q 1272 1079 1218 1093 q 1357 1013 1326 1065 l 1364 1017 q 1319 1111 1361 1084 q 1185 1160 1278 1138 q 1028 1210 1090 1183 q 966 1299 966 1236 q 974 1341 966 1320 q 996 1379 982 1362 q 1048 1306 1006 1326 q 1171 1261 1090 1286 z "},"ॶ":{"ha":1051,"x_min":137,"x_max":1248,"o":"m 268 758 q 331 858 268 810 q 502 905 393 905 q 674 847 610 905 q 738 698 738 789 q 715 596 738 642 q 627 502 692 550 q 684 479 654 486 q 741 472 713 472 q 857 509 806 472 q 921 615 907 546 l 960 812 l 849 812 l 827 896 l 833 902 l 1227 902 l 1248 818 l 1243 812 l 1068 812 l 909 -8 l 901 -13 l 804 13 l 882 410 q 831 394 854 399 q 784 389 807 389 q 736 393 761 389 q 689 407 712 398 q 703 356 698 384 q 708 301 708 328 q 630 117 708 193 q 429 42 552 42 q 201 176 264 42 q 137 405 137 309 q 153 489 137 468 q 204 513 170 510 q 258 238 195 325 q 422 152 321 152 q 566 204 509 152 q 623 332 623 256 q 604 411 623 374 q 551 463 585 447 q 480 442 518 451 q 397 429 441 433 l 363 535 l 368 542 q 581 600 515 549 q 646 730 646 650 q 615 804 646 779 q 532 830 584 830 q 413 790 462 830 q 353 690 365 749 q 291 708 313 690 q 268 758 268 727 m 277 -111 q 285 -86 277 -95 q 302 -71 293 -77 q 402 -175 340 -140 q 537 -211 465 -211 q 681 -175 612 -211 q 796 -75 749 -140 q 828 -99 817 -83 q 840 -134 840 -115 q 755 -245 840 -191 q 557 -299 671 -299 q 352 -230 426 -299 q 277 -111 277 -160 z "},"ॷ":{"ha":1379,"x_min":137,"x_max":1575,"o":"m 1575 818 l 1571 812 l 1396 812 l 1236 -8 l 1229 -13 l 1132 13 l 1287 812 l 1068 812 l 909 -8 l 901 -13 l 804 13 l 882 410 q 831 394 854 399 q 784 389 807 389 q 736 393 761 389 q 689 407 712 398 q 703 356 698 384 q 708 301 708 328 q 630 117 708 193 q 429 42 552 42 q 201 176 264 42 q 137 405 137 309 q 153 489 137 468 q 204 513 170 510 q 258 238 195 325 q 422 152 321 152 q 566 204 509 152 q 623 332 623 256 q 604 411 623 374 q 551 463 585 447 q 480 442 518 451 q 397 429 441 433 l 363 535 l 368 542 q 581 600 515 549 q 646 730 646 650 q 615 804 646 779 q 532 830 584 830 q 413 790 462 830 q 353 690 365 749 q 291 708 313 690 q 268 758 268 727 q 331 858 268 810 q 502 905 393 905 q 674 847 610 905 q 738 698 738 789 q 715 596 738 642 q 627 502 692 550 q 684 479 654 486 q 741 472 713 472 q 857 509 806 472 q 921 615 907 546 l 960 812 l 849 812 l 827 896 l 833 902 l 1554 902 l 1575 818 m 224 -111 q 232 -86 224 -95 q 250 -71 240 -77 q 349 -175 287 -140 q 484 -211 412 -211 q 628 -175 559 -211 q 743 -75 696 -140 q 775 -99 764 -83 q 787 -134 787 -115 q 702 -245 787 -191 q 504 -299 618 -299 q 299 -230 373 -299 q 224 -111 224 -160 m 745 -347 q 677 -437 745 -396 q 503 -477 610 -477 q 274 -403 355 -477 q 192 -280 192 -329 q 199 -256 192 -265 q 216 -240 205 -247 q 325 -348 254 -307 q 491 -389 396 -389 q 621 -365 563 -389 q 719 -298 678 -340 q 739 -320 732 -307 q 745 -347 745 -333 z "},"ॹ":{"ha":964,"x_min":136,"x_max":1160,"o":"m 981 812 l 822 -8 l 814 -13 l 718 13 l 819 536 l 593 536 q 630 460 618 501 q 642 381 642 418 q 572 217 642 280 q 406 154 501 154 q 216 283 267 154 q 165 506 165 413 q 177 594 165 567 q 237 626 189 621 q 272 351 227 437 q 398 264 317 264 q 507 304 458 264 q 557 418 557 345 q 528 500 557 465 q 439 536 498 536 l 418 620 l 422 626 l 836 626 l 873 812 l 158 812 l 136 896 l 142 902 l 1139 902 l 1160 818 l 1156 812 l 981 812 m 477 16 q 498 62 477 42 q 545 81 519 81 q 578 67 566 81 q 591 34 591 53 q 570 -12 591 7 q 524 -31 549 -31 q 490 -17 503 -31 q 477 16 477 -3 m 165 16 q 186 62 165 42 q 233 81 208 81 q 267 67 254 81 q 279 34 279 53 q 258 -12 279 7 q 212 -31 237 -31 q 178 -17 191 -31 q 165 16 165 -3 m 302 -106 q 323 -60 302 -80 q 370 -41 345 -41 q 404 -55 391 -41 q 416 -88 416 -69 q 395 -134 416 -115 q 349 -153 374 -153 q 315 -139 328 -153 q 302 -106 302 -125 z "},"ॺ":{"ha":846,"x_min":136,"x_max":1043,"o":"m 705 -8 l 697 -13 l 600 13 l 642 227 q 563 189 602 201 q 480 177 524 177 q 293 254 378 177 q 153 502 208 332 l 158 509 q 352 600 307 548 q 398 730 398 651 q 395 774 398 751 q 388 812 393 797 l 158 812 l 136 896 l 142 902 l 1022 902 l 1043 818 l 1038 812 l 864 812 l 705 -8 m 456 812 l 669 410 q 681 437 675 422 q 688 468 686 452 l 755 812 l 456 812 m 264 425 q 347 317 293 349 q 456 286 401 286 q 541 302 498 286 q 618 349 584 319 l 473 617 q 403 500 454 544 q 264 425 352 456 z "},"ॻ":{"ha":842,"x_min":69,"x_max":1038,"o":"m 1038 818 l 1034 812 l 859 812 l 694 -36 l 87 -36 l 69 35 l 75 41 l 601 41 l 751 812 l 456 812 l 367 355 q 336 273 356 300 q 286 246 315 246 q 188 307 235 246 q 140 406 140 367 q 155 437 140 423 q 202 452 170 452 l 280 452 l 351 812 l 158 812 l 136 896 l 142 902 l 1017 902 l 1038 818 z "},"ॼ":{"ha":964,"x_min":76,"x_max":1160,"o":"m 1160 818 l 1156 812 l 981 812 l 817 -36 l 94 -36 l 76 35 l 81 41 l 723 41 l 819 536 l 593 536 q 630 460 618 501 q 642 382 642 419 q 572 217 642 280 q 406 154 501 154 q 216 283 267 154 q 165 506 165 412 q 185 601 165 579 q 237 626 206 623 q 272 351 227 437 q 398 264 317 264 q 507 304 458 264 q 557 418 557 345 q 528 500 557 465 q 439 536 498 536 l 418 620 l 422 626 l 836 626 l 873 812 l 158 812 l 136 896 l 142 902 l 1139 902 l 1160 818 z "},"ॽ":{"ha":641,"x_min":209,"x_max":705,"o":"m 444 905 q 633 837 562 905 q 705 664 705 768 q 622 463 705 538 q 412 358 538 388 l 344 5 l 336 1 l 239 26 l 323 460 q 543 536 471 472 q 614 696 614 600 q 575 795 614 761 q 475 830 536 830 q 354 790 402 830 q 294 690 306 749 q 231 708 254 690 q 209 758 209 727 q 272 858 209 810 q 444 905 335 905 z "},"ॾ":{"ha":713,"x_min":62,"x_max":910,"o":"m 743 812 l 703 606 l 696 600 l 428 600 q 340 577 363 600 q 317 521 317 553 q 335 477 317 494 q 391 461 354 461 q 469 468 420 461 q 545 475 517 475 q 652 421 608 475 q 697 288 697 366 q 630 127 697 187 q 453 67 564 67 q 212 178 293 67 q 132 354 132 288 q 142 393 132 376 q 172 418 153 409 q 280 234 209 294 q 437 173 352 173 q 571 211 511 173 q 631 305 631 248 q 615 348 631 330 q 570 366 600 366 q 500 360 550 366 q 424 354 450 354 q 292 418 349 354 q 235 559 235 481 q 274 658 235 621 q 391 696 312 696 l 610 696 q 614 697 612 696 q 616 701 616 699 l 638 812 l 158 812 l 136 896 l 142 902 l 889 902 l 910 818 l 905 812 l 743 812 m 80 -104 l 62 -33 l 68 -27 l 651 -27 l 669 -98 l 663 -104 l 80 -104 z "},"ॿ":{"ha":787,"x_min":69,"x_max":983,"o":"m 546 41 l 577 201 q 484 160 528 172 q 404 149 439 149 q 219 226 301 149 q 137 413 137 304 q 227 604 137 526 q 437 683 316 683 q 553 658 497 683 q 650 580 610 633 l 696 812 l 158 812 l 136 896 l 142 902 l 962 902 l 983 818 l 979 812 l 804 812 l 640 -36 l 87 -36 l 69 35 l 75 41 l 546 41 m 619 419 l 624 442 q 591 544 637 503 q 467 585 545 585 q 419 581 444 585 q 375 568 395 576 l 543 300 q 592 354 572 323 q 619 419 612 385 m 230 376 q 268 277 230 317 q 372 237 305 237 q 423 243 396 237 q 473 259 450 248 l 302 525 q 250 457 269 494 q 230 376 230 419 z "},"꣠":{"ha":0,"x_min":-188,"x_max":93,"o":"m -39 1314 q 57 1275 20 1314 q 93 1181 93 1236 q 47 1081 93 1122 q -54 1041 2 1041 q -151 1081 -115 1041 q -188 1174 -188 1121 q -143 1271 -188 1229 q -39 1314 -98 1314 m 30 1197 q 15 1238 30 1223 q -26 1253 -1 1253 q -92 1224 -62 1253 q -121 1158 -121 1196 q -106 1117 -121 1133 q -68 1100 -92 1100 q -2 1127 -34 1100 q 30 1197 30 1154 z "},"꣡":{"ha":0,"x_min":-178,"x_max":57,"o":"m -90 1103 q -24 1046 -57 1078 q 9 981 9 1015 q -6 945 9 960 q -46 929 -22 929 q -79 942 -66 929 q -93 969 -92 954 q -69 982 -77 974 q -62 998 -62 991 q -91 1039 -62 1013 q -178 1111 -120 1065 l -178 1117 q -123 1157 -147 1139 q -80 1190 -100 1175 q -129 1236 -110 1209 q -147 1292 -147 1262 q -115 1359 -147 1333 q -43 1384 -83 1384 q 28 1353 -1 1384 q 57 1282 57 1322 q 20 1199 57 1244 q -90 1103 -17 1154 m -31 1333 q -60 1317 -46 1333 q -75 1276 -75 1302 q -68 1250 -75 1263 q -45 1224 -62 1237 q -18 1263 -28 1244 q -7 1301 -7 1282 q -14 1325 -7 1317 q -31 1333 -21 1333 z "},"꣢":{"ha":0,"x_min":-205,"x_max":91,"o":"m -7 1016 q 11 1019 1 1016 q 38 1031 21 1021 q 49 1011 45 1022 q 52 991 52 1000 q 36 958 52 972 q -7 943 19 943 q -73 974 -40 943 q -116 1075 -105 1004 q -176 1085 -147 1072 q -205 1128 -205 1099 q -186 1168 -205 1154 q -142 1182 -167 1182 q -110 1174 -124 1182 q -87 1151 -96 1165 q -3 1213 -32 1175 q 25 1284 25 1250 q 13 1320 25 1308 q -20 1333 0 1333 q -75 1310 -52 1333 q -102 1253 -98 1286 q -150 1261 -133 1250 q -166 1292 -166 1273 q -125 1355 -166 1325 q -29 1384 -83 1384 q 58 1349 26 1384 q 91 1266 91 1314 q 48 1162 91 1216 q -73 1084 6 1109 q -43 1028 -58 1041 q -7 1016 -28 1016 z "},"꣣":{"ha":0,"x_min":-205,"x_max":79,"o":"m -47 975 q -25 978 -35 975 q 0 990 -16 981 q 9 976 6 984 q 12 959 12 967 q -4 927 12 941 q -44 913 -21 913 q -93 935 -70 913 q -129 999 -116 956 q -184 1019 -163 1002 q -205 1057 -205 1036 q -188 1094 -205 1078 q -146 1109 -171 1109 q -109 1096 -124 1109 q -90 1064 -94 1083 q -32 1087 -53 1069 q -12 1131 -12 1106 q -17 1155 -12 1143 q -33 1173 -22 1166 q -74 1164 -51 1168 q -121 1158 -96 1160 l -132 1219 l -127 1223 q -19 1246 -51 1225 q 13 1300 13 1267 q 2 1326 13 1317 q -28 1336 -9 1336 q -76 1317 -57 1336 q -99 1268 -94 1297 q -145 1274 -127 1263 q -163 1304 -163 1284 q -129 1357 -163 1331 q -39 1383 -94 1383 q 47 1353 15 1383 q 79 1283 79 1322 q 65 1237 79 1258 q 20 1195 52 1215 q 47 1157 38 1179 q 56 1116 56 1136 q 20 1044 56 1079 q -86 1005 -17 1010 q -66 980 -75 984 q -47 975 -56 975 z "},"꣤":{"ha":0,"x_min":-188,"x_max":136,"o":"m -16 1179 q 19 1126 9 1148 q 30 1084 30 1103 q -6 1014 30 1034 q -71 993 -42 993 q -136 1021 -109 993 q -163 1084 -163 1049 q -148 1128 -163 1107 q -100 1186 -134 1148 q -160 1249 -133 1217 q -188 1312 -188 1280 q -164 1362 -188 1341 q -109 1383 -140 1383 q -74 1369 -85 1383 q -60 1335 -63 1354 q -99 1326 -81 1335 q -117 1297 -117 1317 q -103 1269 -117 1284 q -62 1225 -90 1253 l 85 1383 l 136 1343 l -16 1179 m -99 1071 q -93 1055 -99 1060 q -76 1049 -86 1049 q -50 1060 -62 1049 q -39 1093 -39 1071 q -43 1115 -39 1104 q -56 1138 -47 1126 q -89 1097 -79 1112 q -99 1071 -99 1082 z "},"꣥":{"ha":0,"x_min":-221,"x_max":72,"o":"m 67 1192 q 60 1161 67 1177 q 40 1128 53 1145 q 64 1072 56 1099 q 72 1027 72 1046 q 50 973 72 996 q -1 951 28 951 q -37 963 -21 951 q -54 1000 -52 976 q -3 1014 -17 1003 q 10 1048 10 1025 q 7 1067 10 1057 q -1 1088 5 1077 q -55 1058 -28 1069 q -109 1046 -83 1046 q -187 1080 -153 1046 q -221 1162 -221 1113 q -182 1267 -221 1207 q -90 1386 -144 1326 l -37 1350 l -37 1344 q -126 1226 -96 1278 q -156 1143 -156 1174 q -146 1114 -156 1124 q -116 1103 -136 1103 q -80 1111 -101 1103 q -31 1143 -59 1118 q -45 1170 -41 1157 q -50 1191 -50 1182 q -31 1232 -50 1214 q 16 1251 -12 1251 q 54 1232 41 1251 q 67 1192 67 1214 z "},"꣦":{"ha":0,"x_min":-208,"x_max":41,"o":"m 41 1098 q 33 1070 41 1085 q 10 1045 24 1055 q 31 1004 25 1021 q 36 975 36 986 q 20 937 36 954 q -22 920 4 920 q -55 933 -44 920 q -66 967 -66 946 q -35 975 -46 967 q -24 998 -24 982 q -26 1009 -24 1002 q -31 1021 -28 1016 q -62 1012 -48 1015 q -90 1009 -76 1009 q -176 1044 -144 1009 q -208 1118 -208 1078 q -194 1165 -208 1143 q -144 1208 -179 1187 q -168 1241 -159 1223 q -178 1280 -178 1260 q -138 1352 -178 1321 q -47 1383 -99 1383 q 16 1361 -3 1383 q 26 1312 35 1339 q 0 1320 16 1317 q -33 1324 -16 1324 q -90 1305 -71 1324 q -109 1263 -109 1287 q -106 1246 -109 1254 q -95 1231 -102 1238 q -56 1240 -78 1236 q -10 1245 -34 1244 l 5 1191 l 1 1185 q -118 1153 -92 1179 q -144 1101 -144 1127 q -131 1072 -144 1082 q -97 1061 -118 1061 q -84 1063 -90 1061 q -66 1068 -77 1064 q -71 1080 -69 1073 q -72 1093 -72 1087 q -53 1130 -72 1114 q -7 1147 -34 1147 q 28 1131 16 1147 q 41 1098 41 1116 z "},"꣧":{"ha":0,"x_min":-220,"x_max":87,"o":"m -112 1256 q -82 1328 -112 1300 q -12 1356 -53 1356 q 61 1313 35 1356 q 87 1211 87 1270 q 41 1072 87 1121 q -70 1022 -5 1022 q -183 1094 -146 1022 q -220 1253 -220 1166 q -205 1347 -220 1320 q -163 1374 -191 1374 q -157 1374 -160 1374 q -152 1373 -154 1373 q -161 1309 -158 1339 q -163 1253 -163 1278 q -138 1129 -164 1169 q -77 1088 -113 1088 q -35 1101 -56 1088 q 1 1136 -14 1113 q -81 1178 -51 1143 q -112 1256 -112 1213 m -4 1297 q -32 1282 -19 1297 q -44 1242 -44 1267 q -30 1203 -44 1220 q 18 1181 -15 1185 q 23 1199 20 1187 q 26 1232 26 1210 q 18 1278 26 1259 q -4 1297 11 1297 z "},"꣨":{"ha":0,"x_min":-176,"x_max":119,"o":"m 94 1102 q 48 1044 94 1079 q -60 1008 2 1008 q -142 1039 -109 1008 q -176 1111 -176 1069 q -155 1174 -176 1145 q -71 1257 -134 1202 q 17 1328 -27 1294 q 71 1371 60 1362 l 119 1337 l 118 1331 q 62 1284 105 1320 q -28 1208 18 1248 q -97 1139 -82 1159 q -111 1099 -111 1120 q -101 1074 -111 1084 q -75 1065 -91 1065 q -9 1085 -41 1065 q 58 1147 23 1105 q 84 1127 75 1141 q 94 1102 94 1114 z "},"꣩":{"ha":0,"x_min":-170,"x_max":60,"o":"m -56 1162 q -31 1124 -40 1138 q -12 1092 -22 1110 q 3 1059 -1 1074 q 8 1031 8 1044 q -15 980 8 1001 q -62 960 -37 960 q -93 971 -80 960 q -109 1003 -105 983 q -76 1019 -90 1006 q -62 1049 -62 1032 q -78 1094 -62 1070 q -119 1154 -94 1118 q -156 1217 -143 1189 q -170 1273 -170 1246 q -135 1350 -170 1318 q -47 1382 -100 1382 q 28 1350 -3 1382 q 60 1275 60 1318 q 30 1202 60 1235 q -56 1162 -1 1170 m -3 1286 q -14 1317 -3 1305 q -39 1329 -24 1329 q -80 1311 -60 1329 q -100 1255 -100 1293 q -98 1235 -100 1244 q -91 1217 -96 1225 q -24 1239 -45 1219 q -3 1286 -3 1258 z "},"꣪":{"ha":0,"x_min":-281,"x_max":241,"o":"m 55 1160 q 36 1156 44 1157 q 22 1156 27 1156 q 6 1157 14 1156 q -6 1158 -1 1158 q -2 1139 -3 1149 q -1 1119 -1 1128 q -39 1036 -1 1072 q -139 1000 -78 1000 q -251 1063 -220 1000 q -281 1171 -281 1126 q -270 1216 -281 1206 q -234 1226 -259 1225 q -212 1100 -237 1137 q -146 1063 -186 1063 q -89 1083 -113 1063 q -65 1137 -65 1103 q -71 1167 -65 1154 q -87 1187 -77 1181 q -122 1177 -102 1181 q -165 1173 -142 1173 l -174 1233 l -169 1238 q -82 1260 -110 1240 q -55 1317 -55 1280 q -65 1345 -55 1336 q -94 1354 -76 1354 q -140 1337 -121 1354 q -161 1292 -158 1319 q -207 1299 -189 1288 q -224 1329 -224 1311 q -192 1377 -224 1353 q -104 1402 -159 1402 q -19 1373 -50 1402 q 13 1301 13 1343 q 1 1254 13 1274 q -34 1215 -10 1234 q -15 1209 -25 1211 q 3 1207 -5 1207 q 50 1221 28 1207 q 76 1265 71 1236 l 92 1346 l 45 1346 l 42 1396 l 46 1400 l 239 1400 l 241 1351 l 237 1346 l 168 1346 l 98 987 l 93 983 l 22 989 l 55 1160 z "},"꣫":{"ha":0,"x_min":-210,"x_max":173,"o":"m 92 1293 q 82 1253 92 1272 q 44 1213 71 1234 q 73 1173 63 1196 q 83 1125 83 1149 q 43 1038 83 1076 q -60 1000 3 1000 q -178 1069 -146 1000 q -210 1183 -210 1139 q -198 1225 -210 1208 q -154 1240 -187 1243 q -130 1108 -156 1151 q -62 1065 -104 1065 q -6 1086 -30 1065 q 18 1141 18 1107 q 9 1171 18 1158 q -10 1190 1 1183 q -48 1182 -27 1185 q -91 1181 -69 1180 l -94 1242 l -90 1247 q -2 1264 -31 1246 q 27 1312 27 1282 q 19 1336 27 1325 q -6 1346 11 1346 l -192 1346 l -196 1396 l -192 1400 l 169 1400 l 173 1351 l 169 1346 l 77 1346 q 89 1319 85 1333 q 92 1293 92 1305 z "},"꣬":{"ha":0,"x_min":-271,"x_max":238,"o":"m -202 1156 q -189 1119 -202 1133 q -155 1104 -176 1104 q -109 1119 -132 1104 q -81 1161 -86 1135 l -78 1178 q -88 1218 -73 1201 q -127 1235 -102 1235 q -179 1212 -157 1235 q -202 1156 -202 1190 m 15 1265 q 45 1276 31 1272 q 71 1279 58 1279 q 139 1250 111 1279 q 166 1172 166 1221 q 134 1078 166 1114 q 69 1042 102 1042 q 38 1053 52 1042 q 19 1077 24 1063 q 81 1127 56 1097 q 106 1194 106 1158 q 100 1217 106 1209 q 82 1225 93 1225 q 29 1201 60 1225 q -9 1139 -2 1177 l -39 987 l -44 983 l -115 989 l -102 1055 q -126 1049 -115 1051 q -145 1048 -136 1048 q -232 1086 -192 1048 q -271 1174 -271 1124 q -231 1259 -271 1223 q -138 1296 -191 1296 q -100 1290 -120 1296 q -60 1271 -80 1284 l -45 1346 l -267 1346 l -271 1396 l -267 1400 l 236 1400 l 238 1351 l 234 1346 l 31 1346 l 15 1265 z "},"꣭":{"ha":0,"x_min":-223,"x_max":164,"o":"m 91 1346 l 21 987 l 16 983 l -54 989 l -15 1192 l -109 1192 l -117 1153 q -129 1129 -119 1137 q -153 1122 -138 1122 q -199 1154 -175 1122 q -223 1213 -223 1185 q -198 1246 -223 1238 q -147 1255 -174 1255 l -3 1255 l 15 1346 l -212 1346 l -216 1396 l -212 1400 l 161 1400 l 164 1351 l 160 1346 l 91 1346 z "},"꣮":{"ha":0,"x_min":-216,"x_max":161,"o":"m 14 983 l -57 989 l -36 1099 q -66 1091 -52 1094 q -92 1088 -80 1088 q -177 1128 -144 1088 q -201 1218 -210 1168 l -176 1346 l -212 1346 l -216 1396 l -212 1400 l 158 1400 l 161 1351 l 157 1346 l 88 1346 l 18 987 l 14 983 m -130 1192 q -126 1152 -135 1164 q -101 1139 -118 1139 q -47 1161 -75 1139 q -13 1217 -20 1183 l 12 1346 l -100 1346 l -130 1192 z "},"꣯":{"ha":0,"x_min":-160,"x_max":149,"o":"m 56 1271 q 27 1189 56 1230 q -86 1131 -2 1147 q -35 1061 -65 1090 q 33 1010 -5 1032 q 16 990 31 999 q -14 981 0 981 q -110 1054 -59 981 q -160 1177 -160 1128 q -142 1215 -160 1198 q -96 1232 -125 1232 q -70 1229 -85 1232 q -43 1218 -56 1225 q -16 1249 -26 1229 q -7 1299 -7 1268 q -8 1322 -7 1309 q -12 1346 -9 1335 l -149 1346 l -153 1396 l -149 1400 l 147 1400 l 149 1351 l 145 1346 l 43 1346 q 53 1308 49 1327 q 56 1271 56 1288 z "},"꣰":{"ha":0,"x_min":-329,"x_max":232,"o":"m 157 1346 l 87 987 l 83 983 l 12 989 l 26 1061 q -9 1051 7 1055 q -38 1048 -25 1048 q -128 1086 -87 1048 q -169 1175 -169 1124 q -124 1264 -169 1225 q -17 1302 -80 1302 q 25 1296 4 1302 q 67 1274 45 1290 l 81 1346 l -184 1346 l -254 987 l -258 983 l -329 989 l -260 1346 l -319 1346 l -322 1396 l -318 1400 l -265 1400 q -277 1427 -273 1413 q -281 1453 -281 1440 q -237 1538 -281 1501 q -115 1576 -193 1576 q 33 1532 -39 1576 q 149 1400 104 1487 l 228 1400 l 232 1351 l 228 1346 l 157 1346 m 83 1400 q -4 1486 46 1458 q -110 1514 -55 1514 q -189 1492 -163 1514 q -216 1438 -216 1471 q -212 1417 -216 1428 q -203 1400 -209 1407 l 83 1400 m -100 1157 q -85 1118 -100 1133 q -47 1104 -71 1104 q 12 1124 -18 1104 q 48 1177 42 1143 l 50 1184 q 38 1228 54 1211 q -8 1244 21 1244 q -73 1219 -46 1244 q -100 1157 -100 1194 z "},"꣱":{"ha":0,"x_min":-176,"x_max":104,"o":"m 100 1346 l -3 1346 q -59 1333 -46 1346 q -71 1303 -71 1320 q -17 1252 -71 1268 q 66 1177 37 1236 q 75 1151 72 1164 q 77 1125 77 1137 q 42 1046 77 1080 q -50 1011 7 1011 q -144 1053 -113 1011 q -176 1133 -176 1095 q -167 1165 -176 1147 q -129 1184 -158 1183 q -104 1098 -125 1123 q -53 1072 -82 1072 q -3 1091 -24 1072 q 18 1138 18 1109 q -37 1194 18 1183 q -125 1272 -92 1205 q -133 1292 -130 1280 q -136 1316 -136 1303 q -101 1377 -136 1354 q -18 1400 -66 1400 l 100 1400 l 104 1351 l 100 1346 z "},"ꣲ":{"ha":572,"x_min":224,"x_max":658,"o":"m 506 860 q 481 806 506 829 q 426 783 456 783 q 387 800 402 783 q 372 840 372 817 q 396 893 372 870 q 451 916 421 916 q 491 899 475 916 q 506 860 506 883 m 224 795 q 234 844 224 830 q 264 868 243 857 q 314 729 276 769 q 405 688 351 688 q 516 729 462 688 q 609 856 571 770 q 646 831 635 844 q 658 798 658 817 q 584 667 658 736 q 412 598 511 598 q 272 665 319 598 q 224 795 224 732 z "},"ꣳ":{"ha":572,"x_min":195,"x_max":658,"o":"m 506 860 q 481 806 506 829 q 426 783 456 783 q 387 800 402 783 q 372 840 372 817 q 396 893 372 870 q 451 916 421 916 q 491 899 475 916 q 506 860 506 883 m 224 795 q 234 844 224 830 q 264 868 243 857 q 314 729 276 769 q 405 688 351 688 q 516 729 462 688 q 609 856 571 770 q 646 831 635 844 q 658 798 658 817 q 584 667 658 736 q 412 598 511 598 q 272 665 319 598 q 224 795 224 732 m 195 359 q 225 407 195 389 q 309 426 256 426 q 380 416 340 426 q 468 372 420 406 q 588 252 543 321 q 633 156 633 183 q 627 138 633 149 q 606 123 620 127 q 458 278 526 241 q 331 314 391 314 q 275 309 302 314 q 229 300 248 304 q 204 329 212 314 q 195 359 195 345 z "},"ꣴ":{"ha":572,"x_min":121,"x_max":658,"o":"m 506 860 q 481 806 506 829 q 426 783 456 783 q 387 800 402 783 q 372 840 372 817 q 396 893 372 870 q 451 916 421 916 q 491 899 475 916 q 506 860 506 883 m 224 795 q 234 844 224 830 q 264 868 243 857 q 314 729 276 769 q 405 688 351 688 q 516 729 462 688 q 609 856 571 770 q 646 831 635 844 q 658 798 658 817 q 584 667 658 736 q 412 598 511 598 q 272 665 319 598 q 224 795 224 732 m 427 453 q 402 399 427 422 q 347 376 377 376 q 308 393 323 376 q 292 433 292 410 q 317 486 292 463 q 372 509 342 509 q 412 492 396 509 q 427 453 427 476 m 145 388 q 154 437 145 423 q 185 461 163 450 q 235 322 197 362 q 326 281 273 281 q 438 322 383 281 q 530 449 492 363 q 568 424 556 437 q 579 391 579 410 q 506 260 579 330 q 333 191 432 191 q 193 258 240 191 q 145 388 145 326 m 121 -20 q 152 27 121 9 q 235 46 182 46 q 307 36 267 46 q 394 -7 347 26 q 514 -128 469 -59 q 559 -224 559 -197 q 553 -242 559 -231 q 532 -257 546 -252 q 384 -102 452 -138 q 257 -66 317 -66 q 201 -71 228 -66 q 155 -80 174 -75 q 130 -51 138 -66 q 121 -20 121 -35 z "},"ꣵ":{"ha":572,"x_min":111,"x_max":658,"o":"m 506 860 q 481 806 506 829 q 426 783 456 783 q 387 800 402 783 q 372 840 372 817 q 396 893 372 870 q 451 916 421 916 q 491 899 475 916 q 506 860 506 883 m 224 795 q 234 844 224 830 q 264 868 243 857 q 314 729 276 769 q 405 688 351 688 q 516 729 462 688 q 609 856 571 770 q 646 831 635 844 q 658 798 658 817 q 584 667 658 736 q 412 598 511 598 q 272 665 319 598 q 224 795 224 732 m 408 -73 q 437 -69 422 -73 q 473 -52 452 -64 q 490 -76 485 -62 q 496 -102 496 -90 q 470 -148 496 -127 q 407 -169 445 -169 q 313 -122 360 -169 q 234 46 265 -75 q 154 65 198 45 q 111 130 111 85 q 138 184 111 161 q 200 207 165 207 q 247 193 225 207 q 280 155 269 179 q 421 255 375 195 q 467 370 467 315 q 445 428 467 408 q 389 448 423 448 q 299 411 337 448 q 254 324 262 374 q 193 337 216 321 q 170 380 170 353 q 232 475 170 429 q 374 522 294 522 q 504 469 453 522 q 555 345 555 416 q 488 191 555 268 q 298 63 421 113 q 347 -45 321 -18 q 408 -73 373 -73 z "},"ꣶ":{"ha":572,"x_min":113,"x_max":658,"o":"m 506 860 q 481 806 506 829 q 426 783 456 783 q 387 800 402 783 q 372 840 372 817 q 396 893 372 870 q 451 916 421 916 q 491 899 475 916 q 506 860 506 883 m 224 795 q 234 844 224 830 q 264 868 243 857 q 314 729 276 769 q 405 688 351 688 q 516 729 462 688 q 609 856 571 770 q 646 831 635 844 q 658 798 658 817 q 584 667 658 736 q 412 598 511 598 q 272 665 319 598 q 224 795 224 732 m 355 -124 q 383 -120 370 -124 q 420 -103 397 -116 q 437 -127 431 -113 q 443 -153 443 -140 q 417 -200 443 -180 q 355 -220 391 -220 q 276 -182 311 -220 q 222 -68 240 -145 q 142 -39 171 -65 q 113 18 113 -13 q 138 70 113 46 q 199 94 163 94 q 252 74 231 94 q 279 22 273 54 q 380 61 347 31 q 414 131 414 92 q 405 170 414 151 q 375 201 395 189 q 314 186 348 192 q 241 177 280 180 l 218 261 l 222 266 q 402 309 353 275 q 452 393 452 344 q 433 438 452 422 q 382 454 414 454 q 302 424 334 454 q 264 347 271 393 q 202 360 225 344 q 179 402 179 376 q 230 480 179 441 q 366 520 281 520 q 493 476 446 520 q 540 370 540 433 q 526 302 540 336 q 447 229 512 269 q 490 173 475 206 q 505 107 505 140 q 450 -3 505 50 q 284 -66 395 -55 q 313 -113 299 -101 q 355 -124 328 -124 z "},"ꣷ":{"ha":572,"x_min":125,"x_max":658,"o":"m 506 860 q 481 806 506 829 q 426 783 456 783 q 387 800 402 783 q 372 840 372 817 q 396 893 372 870 q 451 916 421 916 q 491 899 475 916 q 506 860 506 883 m 224 795 q 234 844 224 830 q 264 868 243 857 q 314 729 276 769 q 405 688 351 688 q 516 729 462 688 q 609 856 571 770 q 646 831 635 844 q 658 798 658 817 q 584 667 658 736 q 412 598 511 598 q 272 665 319 598 q 224 795 224 732 m 551 442 l 387 442 q 303 419 332 442 q 275 366 275 396 q 360 284 275 308 q 486 172 445 260 q 497 134 494 155 q 501 96 501 114 q 449 -27 501 26 q 312 -79 397 -79 q 171 -16 218 -79 q 125 105 125 48 q 140 158 125 137 q 192 181 156 179 q 220 48 185 87 q 307 8 256 8 q 390 39 355 8 q 425 114 425 69 q 339 204 425 183 q 202 324 253 225 q 191 354 195 338 q 186 389 186 371 q 237 484 186 449 q 362 519 288 519 l 541 519 l 554 447 l 551 442 z "},"꣸":{"ha":907,"x_min":178,"x_max":938,"o":"m 787 720 q 891 672 845 720 q 938 528 938 623 q 791 197 938 353 q 466 41 644 41 q 290 109 355 41 q 224 259 224 177 q 240 331 224 296 q 283 396 256 365 q 203 468 229 425 q 178 555 178 511 q 239 686 178 634 q 380 738 301 738 q 453 715 427 738 q 491 642 479 692 q 320 609 370 642 q 271 528 271 576 q 287 481 271 503 q 338 444 304 460 q 406 476 369 463 q 483 494 442 490 l 541 406 l 536 399 q 364 332 422 382 q 307 227 307 283 q 341 158 307 183 q 430 134 376 134 q 598 184 513 134 q 746 311 683 235 q 653 431 683 370 q 623 547 623 492 q 675 675 623 629 q 787 720 727 720 m 789 368 q 842 468 821 417 q 863 564 863 519 q 851 615 863 597 q 814 632 838 632 q 743 597 774 632 q 711 517 711 562 q 731 445 711 484 q 789 368 750 406 z "},"꣹":{"ha":804,"x_min":121,"x_max":834,"o":"m 635 438 l 575 385 q 533 467 547 425 q 519 547 519 509 q 571 675 519 629 q 684 720 623 720 q 788 672 741 720 q 834 528 834 623 q 687 197 834 353 q 362 41 541 41 q 186 109 252 41 q 121 259 121 177 q 195 414 121 346 q 379 494 269 483 l 437 406 l 433 399 q 260 332 318 382 q 203 227 203 283 q 238 158 203 183 q 328 134 273 134 q 624 284 488 134 q 760 564 760 435 q 747 615 760 597 q 711 632 734 632 q 639 597 670 632 q 608 517 608 562 q 614 476 608 498 q 635 438 621 455 z "},"꣺":{"ha":628,"x_min":296,"x_max":789,"o":"m 296 1177 l 401 1210 l 498 964 l 504 964 l 698 1210 l 789 1177 l 541 899 l 437 899 l 296 1177 z "},"ꣻ":{"ha":706,"x_min":186,"x_max":953,"o":"m 208 1069 l 186 1154 l 191 1160 l 931 1160 l 953 1076 l 948 1069 l 208 1069 z "}," ":{"ha":361,"x_min":0,"x_max":0,"o":""}}}
